<?xml version="1.0" standalone="no"?>
<!DOCTYPE svg PUBLIC "-//W3C//DTD SVG 20010904//EN"
 "http://www.w3.org/TR/2001/REC-SVG-20010904/DTD/svg10.dtd">
<svg version="1.0" xmlns="http://www.w3.org/2000/svg"
 width="931.000000pt" height="931.000000pt" viewBox="0 0 931.000000 931.000000"
 preserveAspectRatio="xMidYMid meet">
<metadata>
Created by potrace 1.14, written by Peter Selinger 2001-2017
</metadata>
<g transform="translate(0.000000,931.000000) scale(0.100000,-0.100000)"
fill="#000000" stroke="none">
<path d="M2877 8308 c-8 -5 -7 -8 3 -8 10 0 11 -3 3 -8 -8 -5 -8 -11 1 -24 7
-10 16 -15 19 -11 4 3 7 2 7 -3 0 -6 16 -16 35 -24 19 -7 33 -16 30 -18 -2 -3
24 -24 58 -48 34 -23 67 -47 74 -53 7 -6 24 -16 38 -23 14 -6 25 -15 25 -20 0
-4 4 -8 9 -8 17 0 104 -63 133 -95 33 -36 32 -34 87 -85 24 -22 64 -55 90 -72
25 -18 48 -35 49 -40 2 -4 10 -8 17 -8 7 0 15 -3 17 -7 5 -12 95 -73 107 -73
6 0 11 -5 11 -11 0 -5 5 -7 10 -4 6 3 10 2 10 -3 0 -6 14 -15 30 -21 17 -5 30
-15 30 -22 0 -7 2 -10 6 -7 3 3 27 -16 55 -43 27 -26 49 -46 49 -44 0 2 17
-13 38 -33 21 -20 36 -41 34 -46 -3 -5 -1 -6 5 -3 5 3 26 -9 46 -28 19 -18 38
-31 41 -28 3 4 6 1 6 -6 0 -11 44 -61 54 -61 6 0 66 -60 66 -67 0 -11 74 -73
87 -73 7 0 13 -5 13 -11 0 -5 4 -8 9 -5 5 3 11 -1 15 -9 3 -8 10 -15 16 -15 9
0 35 -19 66 -48 7 -7 17 -13 21 -14 23 -3 94 -56 141 -105 28 -30 52 -52 52
-49 0 3 12 -4 26 -17 14 -12 30 -22 35 -22 5 0 14 -7 19 -15 5 -8 10 -12 10
-8 0 3 13 -6 28 -20 49 -48 92 -82 101 -82 5 0 11 -4 13 -8 2 -5 26 -29 55
-54 28 -26 49 -49 46 -52 -4 -3 -1 -6 5 -6 7 0 29 -18 51 -40 21 -22 44 -40
50 -40 7 0 9 -4 6 -10 -3 -5 1 -10 9 -10 9 0 16 -4 16 -9 0 -5 27 -28 60 -52
33 -24 60 -47 60 -51 0 -5 7 -8 15 -8 8 0 15 -4 15 -10 0 -5 6 -10 13 -10 7 0
20 -8 29 -17 26 -28 46 -43 58 -43 6 0 8 -4 5 -10 -3 -5 0 -10 8 -10 8 0 26
-11 41 -25 15 -14 31 -25 37 -25 5 0 9 -7 9 -15 0 -8 7 -15 15 -15 8 0 24 -9
35 -20 11 -11 23 -20 26 -20 4 0 22 -16 41 -35 19 -19 36 -35 38 -35 2 0 20
-16 40 -35 19 -20 35 -33 35 -29 0 3 14 -8 30 -26 17 -18 30 -28 30 -24 0 5 5
1 11 -9 6 -9 14 -15 20 -12 5 4 9 1 9 -5 0 -5 16 -18 35 -27 19 -9 35 -21 35
-25 0 -5 4 -7 9 -4 5 4 21 -8 35 -25 14 -17 26 -28 26 -25 0 3 13 -8 28 -24
16 -16 33 -26 37 -22 5 4 5 2 2 -4 -3 -6 16 -29 42 -52 88 -77 120 -110 113
-117 -4 -5 -2 -5 4 -2 7 4 26 -10 43 -30 17 -20 31 -34 31 -30 0 3 13 -7 28
-21 45 -43 70 -61 76 -55 3 4 6 2 6 -3 0 -16 121 -105 163 -120 9 -3 17 -11
17 -16 0 -6 7 -7 16 -4 8 3 12 2 9 -4 -3 -6 3 -10 14 -10 12 0 21 -5 21 -11 0
-5 5 -7 10 -4 6 3 10 1 10 -4 0 -6 5 -11 11 -11 10 0 30 -15 87 -61 6 -5 12
-6 12 -2 0 4 4 3 8 -3 4 -5 25 -23 47 -39 22 -17 43 -34 47 -40 4 -5 8 -7 8
-3 0 4 19 -11 43 -32 23 -22 50 -42 60 -46 9 -3 17 -10 17 -15 0 -6 5 -7 10
-4 6 3 10 2 10 -4 0 -5 6 -8 14 -7 23 3 46 27 46 47 0 10 4 21 10 24 6 4 5 14
-3 27 -18 30 -55 67 -61 60 -3 -3 -6 0 -6 7 0 7 -5 9 -10 6 -6 -3 -13 1 -16 9
-3 9 -9 14 -13 12 -4 -3 -22 9 -41 26 -19 16 -52 39 -72 49 -32 16 -71 41
-129 81 -10 6 -19 9 -20 7 -2 -2 -19 10 -37 26 -19 17 -38 30 -42 30 -5 0 -34
23 -65 50 -102 88 -110 95 -118 95 -15 0 -107 88 -107 102 0 5 -4 6 -10 3 -5
-3 -10 -3 -10 2 0 29 -158 153 -196 153 -8 0 -14 5 -14 10 0 6 -8 10 -18 10
-10 0 -22 3 -26 8 -4 4 -11 7 -14 7 -4 0 -23 7 -42 15 -39 16 -65 38 -56 47 3
3 2 11 -2 17 -5 6 -14 30 -22 53 -7 23 -16 40 -21 38 -4 -3 -10 3 -13 13 -3
10 -32 33 -64 52 -49 30 -148 122 -232 217 -30 32 -80 75 -80 68 0 -8 -22 11
-82 68 -28 26 -54 47 -57 47 -3 0 -19 11 -34 25 -15 14 -27 23 -27 19 0 -4
-15 8 -33 27 -31 32 -91 79 -101 79 -9 0 -71 64 -68 72 1 4 -2 7 -7 6 -5 -2
-23 9 -40 25 -17 15 -31 25 -31 22 0 -3 -10 3 -22 15 -12 11 -26 20 -30 20 -5
0 -6 5 -3 10 3 6 2 10 -4 10 -5 0 -25 15 -43 33 -61 58 -123 107 -135 107 -7
0 -13 4 -13 8 0 4 -15 16 -32 26 -18 11 -40 25 -48 33 -8 7 -35 29 -60 48 -25
19 -52 41 -60 48 -8 6 -18 11 -22 9 -5 -1 -8 3 -8 9 0 5 -4 7 -10 4 -5 -3 -10
-2 -10 3 0 5 -13 15 -30 22 -16 7 -30 16 -30 21 0 5 -11 15 -25 21 -14 6 -25
15 -25 20 0 11 -38 48 -50 48 -5 0 -10 7 -10 16 0 8 -4 12 -10 9 -5 -3 -10 -1
-10 4 0 6 -5 11 -11 11 -7 0 -20 10 -30 22 -11 11 -19 18 -19 14 0 -6 -18 9
-93 78 -18 15 -49 40 -69 53 -21 14 -38 30 -38 35 0 5 -8 12 -17 15 -20 8 -23
10 -77 55 -22 18 -36 26 -32 18 4 -8 -2 -4 -13 10 -11 14 -21 28 -21 33 0 4
-6 7 -13 7 -7 0 -18 9 -25 20 -7 11 -19 20 -27 20 -8 0 -15 5 -15 12 0 6 -3 8
-7 5 -3 -4 -16 3 -27 16 -26 27 -92 77 -102 77 -4 0 -14 7 -23 15 -9 8 -29 26
-44 41 -15 14 -33 27 -40 28 -15 2 -70 37 -79 51 -4 5 -8 6 -8 1 0 -5 -18 9
-40 32 -22 22 -40 37 -40 34 -1 -4 -10 4 -20 17 -11 13 -20 20 -20 16 0 -5 -9
2 -20 15 -11 13 -20 20 -20 15 0 -4 -20 13 -44 39 -25 25 -49 46 -55 46 -6 0
-11 4 -11 8 0 9 -68 44 -110 58 -32 10 -148 11 -163 2z"/>
<path d="M3566 8309 c2 -4 -2 -9 -10 -12 -17 -7 -16 -28 3 -50 7 -9 65 -51
129 -93 64 -43 124 -86 133 -96 9 -10 21 -18 28 -18 6 0 11 -4 11 -10 0 -5 6
-10 13 -10 7 0 23 -9 35 -20 12 -11 26 -20 31 -20 6 0 15 -8 20 -17 6 -10 11
-14 11 -10 0 8 13 -2 51 -36 11 -10 25 -15 31 -11 6 4 8 3 4 -4 -3 -6 3 -14
15 -17 19 -6 59 -39 59 -49 0 -7 156 -160 210 -206 29 -25 58 -49 64 -55 6 -5
23 -16 39 -24 15 -8 27 -18 27 -23 0 -4 6 -8 13 -8 7 0 33 -18 57 -40 25 -22
57 -45 72 -52 15 -7 24 -16 22 -20 -3 -4 2 -8 11 -8 8 0 18 -7 21 -15 4 -8 10
-12 15 -9 5 3 9 -2 9 -11 0 -9 4 -14 9 -11 5 4 11 2 13 -3 1 -5 25 -23 52 -40
28 -17 46 -31 42 -31 -4 0 9 -15 31 -33 42 -35 89 -76 107 -92 6 -6 40 -35 76
-65 35 -30 78 -68 96 -85 17 -16 46 -41 64 -55 18 -14 51 -42 73 -62 22 -21
43 -38 48 -38 5 0 9 -5 9 -11 0 -11 25 -39 35 -39 3 0 19 -16 36 -35 17 -19
47 -44 67 -57 20 -12 40 -27 44 -32 4 -6 8 -7 8 -2 0 5 8 -1 19 -12 10 -12 23
-22 28 -22 5 0 28 -16 50 -35 22 -19 43 -31 47 -28 3 3 6 1 6 -5 0 -7 7 -12
16 -12 8 0 12 -4 9 -10 -3 -5 -1 -10 5 -10 6 0 29 -13 51 -30 21 -16 57 -43
78 -60 47 -35 60 -37 88 -11 14 14 19 28 16 48 -6 33 -26 83 -33 83 -7 0 -76
59 -132 113 -22 20 -44 37 -49 37 -5 0 -9 4 -9 8 0 14 -106 116 -156 151 -27
19 -63 49 -81 67 -17 18 -33 31 -35 28 -2 -2 -21 12 -41 31 -20 19 -37 32 -37
29 0 -4 -11 5 -25 20 -13 14 -28 26 -33 26 -6 0 -12 6 -15 13 -3 7 -24 26 -48
42 -24 17 -46 33 -49 36 -3 3 -40 30 -82 59 -43 29 -78 57 -78 62 0 5 -4 6
-10 3 -5 -3 -10 -1 -10 5 0 6 -4 9 -9 6 -5 -3 -25 12 -44 34 -19 22 -37 40
-41 40 -3 0 -15 8 -25 18 -36 32 -51 43 -51 37 0 -4 -21 15 -47 42 -27 27 -82
75 -123 108 -41 32 -77 62 -80 66 -3 3 -23 19 -45 33 -22 15 -54 40 -72 56
-17 16 -34 26 -37 23 -3 -4 -6 -1 -6 5 0 6 -8 13 -19 17 -10 3 -45 31 -78 63
-68 65 -103 94 -103 86 0 -6 -74 48 -78 59 -2 4 -8 5 -13 1 -5 -3 -9 1 -9 8 0
7 -14 22 -30 33 -16 11 -30 26 -30 33 0 6 -5 12 -10 12 -6 0 -23 11 -37 24
-15 14 -30 23 -33 21 -3 -2 -13 5 -21 16 -23 34 -49 63 -49 55 0 -4 -10 2 -22
13 -12 12 -40 33 -62 48 -23 15 -43 31 -46 34 -14 18 -215 35 -204 18z"/>
<path d="M4857 8303 c-24 -12 -26 -17 -15 -36 16 -31 34 -47 53 -47 9 0 13 -4
10 -10 -3 -5 -2 -10 4 -10 5 0 30 -13 54 -30 25 -16 50 -30 57 -30 6 0 8 -4 5
-10 -3 -5 0 -10 8 -10 7 0 23 -10 34 -22 27 -31 63 -59 63 -51 0 4 12 -5 28
-18 15 -14 56 -45 92 -69 36 -24 67 -46 70 -50 3 -4 19 -14 35 -23 17 -9 50
-36 74 -61 24 -26 48 -46 53 -46 5 0 6 -4 3 -10 -3 -5 1 -10 9 -10 9 0 16 -7
16 -15 0 -8 3 -15 8 -15 4 0 23 -14 42 -30 19 -16 41 -35 48 -40 6 -6 12 -8
12 -5 0 3 10 -3 22 -15 12 -11 28 -20 35 -20 7 0 13 -5 13 -12 0 -6 3 -9 6 -5
8 8 23 -5 100 -80 35 -35 69 -63 75 -63 7 0 9 -3 6 -6 -4 -4 24 -29 61 -57 37
-28 69 -54 72 -57 8 -12 45 6 45 21 1 8 7 13 15 11 11 -3 11 0 1 11 -9 12 -9
16 1 20 10 4 10 6 1 6 -7 1 -13 7 -13 14 -1 15 -35 57 -48 57 -13 0 -122 106
-122 119 0 6 -4 11 -10 11 -5 0 -33 22 -62 50 -29 27 -56 50 -60 50 -5 0 -8 5
-8 11 0 6 -16 27 -35 46 -19 19 -35 39 -35 45 0 5 -5 6 -10 3 -6 -3 -13 1 -16
9 -3 9 -10 13 -15 10 -5 -3 -8 -1 -7 4 2 6 -14 26 -34 45 -21 19 -38 33 -38
30 0 -2 -11 8 -25 22 -14 14 -30 25 -36 25 -6 0 -7 5 -4 10 3 6 -1 10 -10 10
-10 0 -13 5 -9 12 4 6 3 8 -3 5 -5 -3 -21 5 -36 19 -14 13 -31 24 -37 24 -5 0
-10 5 -10 10 0 6 -6 10 -14 10 -8 0 -16 7 -20 15 -3 8 -12 15 -21 15 -8 0 -15
5 -15 11 0 5 -5 7 -10 4 -6 -3 -13 1 -16 9 -3 9 -10 13 -15 10 -5 -3 -9 0 -9
5 0 6 -7 11 -15 11 -8 0 -15 5 -15 11 0 5 -4 8 -9 5 -5 -3 -12 1 -15 9 -3 8
-9 14 -14 13 -9 -3 -65 37 -90 64 -8 9 -21 14 -29 11 -7 -3 -20 0 -28 7 -8 6
-19 9 -25 5 -5 -3 -10 -1 -10 4 0 6 -16 11 -35 11 -19 0 -35 5 -35 11 0 5 -8
9 -18 7 -11 -2 -25 2 -33 8 -10 8 -22 7 -42 -3z"/>
<path d="M8124 8299 c-16 -18 -19 -39 -4 -39 6 0 10 -5 10 -11 0 -15 39 -49
56 -49 7 0 20 -10 28 -22 9 -12 16 -18 16 -13 0 5 9 0 19 -11 92 -94 182 -174
195 -174 10 0 14 -4 11 -10 -3 -5 1 -10 9 -10 8 0 20 -8 25 -17 6 -10 11 -15
11 -11 0 4 12 -5 28 -20 15 -15 43 -36 62 -45 19 -9 31 -17 25 -17 -9 0 52
-43 65 -45 3 0 24 -11 47 -23 23 -12 47 -22 53 -22 17 0 42 28 36 39 -4 5 -1
11 6 13 14 5 -31 53 -82 88 -19 14 -44 32 -54 42 -11 10 -24 18 -28 18 -5 0
-7 3 -5 8 2 4 -7 17 -20 29 -13 12 -23 20 -23 16 0 -3 -17 13 -39 34 -21 22
-52 49 -70 59 -17 10 -31 22 -31 26 0 4 -7 8 -15 8 -8 0 -15 5 -15 12 0 6 -3
9 -6 5 -6 -6 -17 1 -55 36 -10 9 -19 14 -19 10 0 -5 -4 -3 -8 2 -4 6 -23 22
-42 35 -19 14 -45 35 -58 47 -13 13 -28 24 -35 24 -50 6 -80 2 -93 -12z"/>
<path d="M8748 8312 c-31 -6 -27 -30 12 -70 22 -22 42 -37 45 -34 3 3 5 -1 5
-9 0 -12 170 -104 192 -104 3 0 10 -3 13 -7 4 -4 16 -3 25 2 13 7 18 20 16 45
-3 38 -32 71 -78 87 -16 6 -28 14 -28 20 0 5 -4 7 -9 4 -8 -5 -119 48 -131 63
-6 7 -36 8 -62 3z"/>
<path d="M6039 8299 c-1 -5 -2 -15 -3 -21 -1 -7 15 -21 34 -30 19 -10 49 -29
66 -43 30 -24 32 -24 51 -7 17 14 18 19 7 30 -8 7 -12 17 -9 22 3 4 -8 14 -25
22 -16 7 -30 15 -30 18 0 3 -8 6 -17 7 -10 1 -30 4 -45 7 -16 2 -29 0 -29 -5z"/>
<path d="M2327 8286 c-3 -7 -2 -28 3 -47 4 -19 8 -31 9 -28 1 3 28 -20 62 -52
33 -33 66 -59 72 -59 7 0 18 -9 25 -20 7 -11 19 -20 26 -20 8 0 16 -4 18 -8 2
-5 30 -26 63 -47 33 -22 66 -45 73 -52 6 -6 21 -15 32 -18 11 -3 20 -11 20
-16 0 -6 4 -8 9 -5 5 4 11 3 13 -1 1 -5 26 -24 53 -43 28 -19 55 -40 60 -47 6
-6 16 -13 24 -15 8 -2 33 -21 56 -43 22 -22 45 -42 51 -45 14 -7 65 -50 169
-144 22 -19 46 -36 53 -36 7 0 10 -4 7 -10 -3 -5 -1 -10 6 -10 6 0 30 -18 53
-40 65 -63 110 -103 146 -130 18 -14 39 -31 47 -38 7 -7 13 -11 13 -8 0 3 13
-7 28 -22 16 -15 43 -38 62 -52 18 -14 39 -31 46 -37 7 -7 17 -13 23 -13 6 0
11 -4 11 -10 0 -5 5 -10 11 -10 6 0 32 -17 58 -37 25 -21 62 -49 81 -63 19
-13 52 -39 72 -58 44 -41 82 -62 112 -62 11 0 27 -4 35 -9 22 -14 61 8 61 36
0 12 -5 23 -11 23 -5 0 -8 4 -4 9 4 8 -82 87 -140 129 -58 42 -124 95 -127
102 -2 5 -10 10 -18 12 -15 3 -22 7 -59 38 -13 11 -28 17 -32 14 -5 -3 -12 2
-15 10 -3 9 -12 16 -20 16 -7 0 -20 10 -29 23 -8 12 -19 21 -23 19 -4 -1 -15
5 -24 13 -10 8 -18 13 -18 11 0 -2 -13 9 -30 24 -17 15 -30 33 -30 40 0 6 -4
8 -10 5 -5 -3 -10 1 -10 9 0 9 -3 16 -8 16 -4 0 -20 11 -35 25 -15 14 -27 22
-27 18 0 -4 -4 -3 -8 2 -4 6 -24 23 -45 38 -20 16 -49 40 -62 53 -14 14 -30
22 -37 18 -6 -4 -8 -3 -4 4 3 6 -2 13 -11 16 -10 4 -40 27 -68 51 -27 25 -53
45 -57 45 -4 0 -27 20 -51 44 -24 23 -66 58 -93 77 -59 40 -124 102 -124 117
0 7 -5 12 -10 12 -6 0 -25 14 -43 31 -38 37 -87 73 -87 64 0 -6 -19 10 -100
85 -50 47 -97 75 -140 84 -8 2 -22 5 -30 9 -45 16 -58 20 -87 22 -18 2 -34 -2
-36 -9z"/>
<path d="M5533 8285 c-47 -20 -45 -23 170 -210 9 -8 20 -15 25 -15 4 0 19 -11
34 -25 15 -14 31 -25 36 -25 9 0 44 -26 78 -58 13 -12 25 -22 26 -21 2 1 29
-13 61 -32 31 -19 72 -42 90 -51 17 -10 28 -18 22 -18 -5 0 -3 -4 5 -10 9 -6
17 -5 22 3 6 9 8 9 8 -1 0 -9 5 -10 18 -3 17 9 24 60 10 71 -3 3 -8 12 -10 20
-4 18 -78 90 -93 90 -5 0 -19 14 -30 30 -11 16 -25 30 -32 30 -6 0 -14 8 -17
18 -4 11 -17 25 -31 32 -14 7 -32 25 -41 39 -63 96 -121 128 -237 132 -45 2
-84 6 -87 9 -3 3 -15 1 -27 -5z"/>
<path d="M4280 8238 c0 -5 -4 -7 -9 -3 -5 3 -12 1 -16 -5 -3 -5 -1 -10 6 -10
7 0 10 -3 6 -6 -15 -15 69 -74 123 -86 8 -2 23 -12 33 -22 9 -10 17 -15 17
-10 0 5 5 1 11 -8 5 -10 24 -24 42 -33 18 -8 45 -26 60 -40 15 -14 27 -23 27
-20 0 17 59 -39 76 -72 10 -21 21 -40 24 -43 3 -3 17 -20 32 -38 15 -18 29
-31 30 -30 2 2 27 -17 57 -42 29 -25 55 -43 58 -42 3 2 17 -8 32 -22 15 -15
30 -23 34 -19 4 3 7 0 7 -7 0 -7 3 -11 6 -7 3 3 18 -5 33 -19 41 -39 54 -49
91 -74 19 -14 44 -33 55 -42 10 -10 53 -42 95 -70 41 -29 77 -56 78 -60 2 -4
10 -8 18 -8 8 0 14 -4 14 -10 0 -5 5 -10 11 -10 14 0 39 -26 34 -34 -3 -3 -2
-4 1 -1 4 2 21 -7 39 -20 17 -14 37 -25 44 -25 7 0 9 -4 6 -10 -3 -5 -3 -10 2
-10 4 0 22 -14 40 -30 18 -17 35 -30 39 -30 6 0 81 -61 149 -121 17 -15 57
-51 90 -80 33 -30 84 -77 113 -106 47 -47 89 -68 93 -45 7 39 3 72 -8 72 -8 0
-12 4 -9 8 3 5 -4 18 -14 30 -11 12 -20 26 -20 32 0 5 -3 10 -8 10 -4 0 -16
16 -27 35 -20 38 -120 144 -174 185 -19 14 -41 33 -49 43 -9 9 -22 17 -29 17
-7 0 -13 5 -13 10 0 6 -5 10 -11 10 -15 0 -39 26 -32 34 4 3 2 6 -4 6 -9 0
-23 10 -70 50 -7 5 -15 10 -18 10 -3 0 -25 18 -47 40 -23 22 -48 40 -55 40 -7
0 -13 4 -13 8 0 5 -16 17 -35 28 -19 10 -35 24 -35 31 0 7 -4 13 -9 13 -5 0
-28 17 -50 39 -22 21 -42 37 -44 35 -2 -2 -28 18 -58 46 -29 27 -77 67 -106
87 -29 21 -53 44 -53 51 0 6 -3 12 -7 12 -7 0 -28 16 -80 60 -7 5 -16 10 -20
10 -4 0 -21 12 -38 28 -16 15 -43 34 -59 42 -16 8 -50 36 -77 61 -27 25 -51
44 -53 41 -3 -2 -20 7 -38 22 -43 34 -48 38 -80 58 -15 10 -38 29 -52 43 -14
14 -26 23 -26 19 0 -3 -6 -1 -14 5 -17 14 -166 13 -166 -1z"/>
<path d="M7564 8243 c3 -4 1 -12 -5 -20 -8 -9 -8 -13 -1 -13 6 0 9 -6 6 -13
-3 -8 2 -20 10 -27 9 -7 13 -17 9 -24 -3 -6 -3 -8 2 -4 4 4 14 0 22 -10 10
-11 12 -12 8 -2 -3 8 2 5 11 -7 9 -13 23 -23 30 -23 8 0 14 -4 14 -9 0 -5 9
-13 20 -16 11 -3 20 -13 20 -21 0 -8 4 -13 9 -9 5 3 17 -5 25 -17 9 -12 18
-19 22 -16 3 4 14 -1 23 -10 18 -17 45 -38 106 -84 17 -12 33 -26 36 -31 3 -5
9 -8 13 -7 7 1 65 -41 92 -67 7 -7 16 -13 21 -13 5 0 15 -9 23 -19 7 -11 17
-18 22 -15 4 3 8 0 8 -6 0 -6 4 -9 9 -6 5 4 11 3 13 -1 5 -13 105 -93 115 -93
5 0 15 -9 23 -20 8 -11 18 -20 23 -20 13 0 37 -27 30 -34 -4 -3 -1 -6 6 -6 6
0 23 -10 36 -22 42 -40 74 -63 81 -60 4 2 10 0 13 -5 13 -19 77 -52 96 -49 10
1 22 11 25 22 8 21 -7 74 -21 74 -5 0 -25 16 -45 35 -20 20 -57 52 -83 73 -25
20 -56 47 -68 60 -13 13 -23 20 -23 17 0 -3 -16 10 -35 30 -20 19 -40 35 -46
35 -6 0 -7 5 -4 10 3 6 -1 10 -10 10 -8 0 -18 7 -21 15 -4 8 -12 15 -20 15 -8
0 -14 5 -14 12 0 6 -3 9 -6 5 -3 -3 -18 5 -32 19 -15 13 -31 24 -35 24 -14 0
-72 52 -69 62 1 5 -2 7 -8 3 -5 -3 -10 -2 -10 3 0 5 -17 17 -37 28 -41 21 -89
64 -86 76 2 4 -6 10 -17 13 -11 4 -20 10 -20 13 0 4 -17 16 -37 27 -21 11 -44
27 -50 36 -7 9 -34 32 -61 51 -40 30 -56 35 -106 36 -32 0 -55 -2 -52 -5z"/>
<path d="M2101 8008 c-10 -16 -10 -22 -1 -28 6 -4 11 -10 11 -14 -3 -19 1 -25
19 -31 11 -3 19 -10 17 -14 -1 -5 11 -20 26 -35 15 -14 25 -26 22 -26 -3 0 33
-39 80 -86 48 -47 89 -84 91 -81 3 3 26 -15 51 -39 24 -24 49 -42 54 -39 5 4
9 2 9 -4 0 -13 56 -69 105 -106 22 -17 45 -34 52 -40 6 -5 26 -21 44 -35 18
-14 38 -31 46 -38 7 -7 13 -11 13 -8 0 6 23 -16 177 -161 25 -24 48 -43 51
-43 4 0 34 -25 67 -56 33 -30 72 -62 88 -72 15 -9 27 -20 27 -24 0 -4 6 -8 13
-8 13 0 84 -48 121 -82 11 -10 25 -18 32 -18 6 0 17 -6 23 -14 14 -17 69 -13
109 8 23 12 29 21 25 36 -3 11 -9 20 -13 20 -6 0 -20 10 -66 49 -7 5 -15 7
-18 4 -3 -4 -6 -1 -6 5 0 7 -5 12 -11 12 -15 0 -129 79 -129 90 0 6 -6 10 -14
10 -8 0 -17 7 -20 15 -3 9 -19 21 -36 26 -16 6 -30 17 -30 25 0 8 -4 13 -9 11
-5 -1 -32 22 -60 51 -28 28 -53 52 -55 52 -2 0 -34 29 -71 65 -37 36 -71 65
-76 65 -5 0 -8 6 -6 13 1 6 -4 11 -10 10 -7 -2 -13 1 -13 6 0 4 -17 20 -37 34
-21 14 -62 48 -90 75 -29 27 -53 48 -53 45 0 -2 -12 8 -27 22 -15 14 -34 25
-41 25 -7 0 -10 5 -7 10 3 6 2 10 -3 10 -5 0 -24 15 -42 33 -18 17 -29 25 -25
17 9 -16 4 -12 -65 52 -19 18 -38 32 -42 30 -5 -1 -7 3 -5 10 1 6 -15 21 -36
33 -20 12 -34 25 -30 29 5 4 3 7 -2 5 -18 -4 -48 14 -88 53 -22 21 -45 38 -52
38 -8 0 -15 4 -17 9 -1 6 -15 12 -29 14 -18 4 -29 -1 -38 -15z"/>
<path d="M7325 7940 c3 -5 1 -10 -6 -10 -7 0 -9 -3 -6 -7 4 -3 2 -12 -4 -19
-9 -10 -7 -15 5 -20 9 -3 16 -12 16 -20 0 -8 4 -14 9 -14 5 0 46 -36 90 -80
45 -44 86 -80 91 -80 6 0 10 -5 10 -11 0 -5 5 -7 10 -4 6 3 10 2 10 -4 0 -5
10 -13 22 -17 12 -3 43 -29 70 -56 26 -27 48 -46 48 -42 0 4 13 -7 29 -24 16
-16 31 -28 34 -26 2 3 22 -16 43 -41 21 -24 43 -45 47 -45 4 0 30 -22 57 -50
27 -27 54 -50 60 -50 5 0 10 -4 10 -10 0 -5 6 -10 13 -10 7 0 23 -9 35 -20 12
-11 26 -20 32 -20 6 0 9 -4 6 -8 -3 -5 9 -17 27 -27 17 -10 63 -51 103 -90 51
-50 78 -70 95 -70 35 2 85 29 81 44 -2 9 3 11 15 7 16 -5 16 -5 2 6 -9 7 -16
15 -17 18 -3 21 -16 39 -23 34 -5 -3 -9 2 -9 10 0 9 -4 16 -10 16 -5 0 -19 9
-30 20 -11 11 -18 20 -14 20 3 0 -6 10 -19 23 -60 55 -87 77 -94 77 -5 0 -22
14 -40 30 -18 17 -37 30 -43 30 -6 0 -9 4 -5 9 3 5 -4 12 -15 16 -11 4 -17 11
-14 17 4 6 2 8 -3 5 -6 -4 -18 2 -28 13 -10 11 -22 20 -27 20 -5 0 -26 17 -47
38 -21 20 -61 53 -89 72 -29 19 -52 38 -52 43 0 4 -7 7 -15 7 -8 0 -15 5 -15
10 0 6 -7 10 -15 10 -8 0 -15 5 -15 10 0 6 -5 10 -12 10 -7 0 -41 31 -77 68
-37 38 -86 82 -111 98 -25 16 -54 37 -64 46 -10 10 -23 15 -28 12 -4 -3 -8 -1
-8 3 0 5 -13 16 -29 26 -31 18 -96 24 -86 7z"/>
<path d="M7067 7572 c-15 -16 -16 -24 -6 -45 6 -14 19 -28 28 -31 25 -8 82
-43 107 -65 12 -11 25 -17 28 -14 3 4 6 1 6 -6 0 -12 56 -71 67 -71 2 0 14
-10 27 -22 13 -13 34 -30 46 -38 13 -8 38 -30 56 -48 19 -18 36 -32 40 -31 11
3 86 -56 151 -119 12 -13 23 -20 23 -16 0 4 8 -1 19 -12 31 -32 101 -88 133
-106 17 -9 42 -27 57 -40 14 -13 43 -36 64 -51 20 -16 58 -48 84 -73 51 -47
76 -54 108 -26 41 34 47 47 33 78 -7 16 -16 31 -20 34 -17 13 -76 61 -103 84
-16 14 -33 26 -36 26 -3 0 -20 13 -38 29 -18 17 -48 37 -66 45 -18 9 -38 22
-45 31 -7 8 -19 15 -26 15 -8 0 -14 5 -14 12 0 6 -3 9 -6 6 -3 -4 -14 1 -23
10 -32 30 -61 52 -61 46 0 -4 -21 13 -46 37 -25 24 -61 59 -79 77 -19 17 -39
32 -45 32 -6 0 -8 5 -5 10 3 6 1 10 -5 10 -6 0 -8 5 -5 10 4 6 3 10 -2 9 -12
-4 -63 23 -63 33 0 4 -4 8 -10 8 -10 0 -38 21 -76 58 -13 12 -27 22 -32 22 -6
0 -25 14 -43 32 -75 71 -186 101 -222 60z"/>
<path d="M2074 7496 c-3 -7 -4 -19 -2 -25 3 -14 195 -209 224 -229 11 -6 38
-25 62 -40 23 -16 39 -31 36 -35 -4 -4 0 -7 9 -7 10 0 17 -4 17 -10 0 -5 4
-10 10 -10 9 0 34 -20 90 -72 10 -9 21 -14 24 -11 3 3 8 -2 12 -11 3 -9 10
-13 15 -10 5 3 9 1 9 -3 0 -5 15 -17 33 -28 17 -10 37 -23 42 -27 60 -49 170
-145 200 -175 13 -12 26 -19 31 -15 4 4 4 2 1 -5 -4 -6 19 -34 54 -65 34 -29
83 -74 110 -99 26 -26 51 -44 54 -41 3 3 5 0 5 -6 0 -13 97 -112 110 -112 6 0
10 -4 10 -10 0 -5 14 -10 30 -10 23 0 30 4 30 20 0 11 4 20 8 20 4 0 8 9 9 20
1 11 -2 20 -8 20 -5 0 -9 9 -9 20 0 18 -32 60 -45 60 -3 0 -19 12 -36 27 -16
15 -48 39 -70 53 -21 15 -36 30 -32 33 3 4 -1 7 -11 7 -9 0 -15 4 -12 8 2 4
-9 19 -26 32 -17 14 -50 44 -73 67 -24 23 -45 39 -49 36 -3 -4 -6 1 -6 10 0
10 -8 17 -17 17 -9 0 -13 3 -10 6 4 4 -13 20 -36 35 -68 46 -126 96 -120 103
4 3 -3 6 -15 6 -12 0 -22 4 -22 9 0 5 -9 13 -20 16 -11 3 -20 10 -20 15 0 5
-11 20 -25 34 -14 14 -25 23 -25 20 0 -7 -69 45 -110 83 -19 18 -42 36 -52 39
-10 3 -18 10 -18 16 0 6 -3 8 -7 5 -3 -4 -21 9 -40 28 -19 19 -38 35 -43 35
-5 0 -11 9 -15 20 -3 11 -9 19 -13 18 -10 -3 -93 53 -126 85 -45 45 -111 62
-122 33z"/>
<path d="M6871 7251 c-22 -14 -6 -51 48 -109 28 -29 53 -62 56 -72 3 -10 15
-22 26 -25 10 -4 19 -11 19 -16 0 -5 4 -9 10 -9 5 0 29 -18 52 -40 24 -22 49
-40 55 -40 7 0 13 -4 13 -10 0 -5 5 -10 11 -10 6 0 26 -15 44 -32 55 -55 92
-86 122 -102 15 -8 49 -34 75 -58 25 -24 56 -50 69 -58 12 -8 32 -25 44 -37
13 -12 25 -20 27 -17 3 2 19 -9 36 -25 16 -16 33 -27 37 -23 3 4 9 2 13 -4 4
-6 27 -24 52 -39 24 -16 50 -33 57 -39 32 -29 43 -36 43 -31 0 4 7 0 14 -8 16
-16 79 -14 84 3 2 6 8 8 13 5 10 -7 22 36 17 62 -2 11 -31 32 -71 53 -38 19
-79 45 -92 57 -14 11 -39 30 -57 41 -18 12 -43 31 -54 44 -33 36 -72 67 -78
61 -3 -3 -8 2 -12 11 -3 9 -12 16 -20 16 -8 0 -14 5 -14 11 0 5 -4 7 -10 4 -5
-3 -10 -2 -10 4 0 6 -12 17 -27 25 -16 8 -61 45 -101 83 -40 38 -75 67 -77 64
-3 -2 -5 1 -5 7 0 6 -8 13 -18 16 -10 3 -34 22 -55 42 -20 20 -37 34 -37 31 0
-2 -18 12 -39 33 -21 21 -55 44 -75 51 -20 7 -36 17 -36 21 0 4 -5 8 -11 8 -7
0 -19 8 -28 18 -32 38 -80 52 -110 33z"/>
<path d="M2020 7048 c0 -5 -4 -7 -9 -4 -11 7 -21 -16 -16 -40 2 -11 4 -23 4
-27 1 -5 6 -5 11 -2 6 3 10 -1 10 -9 0 -8 10 -21 23 -27 27 -15 64 -56 79 -89
12 -27 108 -110 127 -110 7 0 9 -4 6 -10 -3 -5 -2 -10 4 -10 6 0 24 -13 41
-30 17 -16 33 -30 35 -30 2 0 24 -19 49 -42 24 -24 59 -54 76 -67 18 -14 45
-36 60 -50 50 -47 70 -61 82 -61 7 0 29 -18 49 -40 21 -22 42 -40 48 -40 6 0
11 -4 11 -8 0 -4 15 -16 33 -27 44 -25 97 -72 90 -79 -4 -3 0 -6 8 -6 9 0 24
-8 35 -18 10 -10 27 -21 37 -25 9 -3 17 -11 17 -18 0 -6 7 -9 14 -6 9 4 17 -2
21 -14 4 -10 13 -19 21 -19 8 0 14 -4 14 -9 0 -5 9 -13 20 -16 11 -4 18 -11
15 -16 -4 -5 -2 -9 2 -9 10 0 46 -25 79 -56 12 -12 25 -19 28 -16 3 3 6 0 6
-6 0 -7 9 -12 20 -12 11 0 20 5 20 10 0 6 7 10 16 10 8 0 13 4 9 9 -3 6 1 16
8 23 11 9 12 21 4 48 -11 40 -32 61 -104 102 -29 16 -53 35 -53 41 0 6 -3 7
-6 4 -6 -6 -105 69 -112 86 -2 4 -9 7 -15 7 -7 0 -24 10 -38 23 -68 57 -95 78
-101 77 -5 0 -16 8 -26 18 -10 9 -40 35 -66 56 -60 50 -110 96 -103 96 4 0 -5
11 -19 25 -14 14 -29 25 -33 25 -4 0 -16 9 -26 20 -10 11 -22 17 -26 14 -5 -3
-9 -1 -9 5 0 5 -9 13 -20 16 -11 4 -18 11 -15 16 4 5 3 9 -2 9 -13 0 -63 47
-63 59 0 7 -4 10 -8 7 -5 -3 -15 6 -22 19 -7 13 -17 22 -22 19 -7 -5 -9 1 -8
21 1 7 -58 57 -62 53 -2 -2 -17 7 -35 20 -17 12 -34 22 -38 22 -17 0 -94 64
-88 74 3 6 3 8 -2 4 -4 -4 -14 -3 -21 3 -17 14 -64 19 -64 7z"/>
<path d="M6648 6946 c-19 -14 -32 -66 -16 -66 6 0 8 -9 5 -20 -3 -12 1 -24 11
-29 9 -5 14 -13 10 -17 -4 -3 14 -23 40 -42 26 -20 49 -40 50 -44 2 -4 9 -8
15 -8 7 0 31 -17 54 -39 23 -21 45 -36 48 -33 3 3 5 -2 5 -11 0 -9 7 -17 15
-17 8 0 20 -9 27 -20 7 -11 17 -20 23 -20 5 0 28 -17 50 -38 22 -21 59 -50 83
-63 23 -14 39 -29 35 -32 -3 -4 1 -7 10 -7 10 0 17 -4 17 -10 0 -5 7 -10 15
-10 8 0 15 -5 15 -11 0 -5 5 -7 10 -4 6 3 10 -1 10 -9 0 -9 3 -15 8 -14 4 2
18 -6 30 -18 12 -11 35 -27 50 -34 15 -8 53 -36 84 -62 31 -26 61 -48 67 -48
6 0 11 -4 11 -9 0 -5 9 -13 20 -16 11 -3 20 -13 20 -21 0 -8 5 -12 10 -9 6 3
10 0 10 -7 0 -20 71 -61 110 -64 19 -1 41 5 48 12 7 8 9 14 5 14 -4 0 -1 6 7
13 8 7 15 19 15 27 0 15 -57 80 -71 80 -9 0 -105 60 -119 75 -5 5 -25 27 -42
48 -18 21 -33 36 -33 33 0 -3 -17 11 -37 29 -21 19 -43 35 -49 35 -6 0 -19 9
-29 20 -10 11 -24 20 -32 20 -7 0 -13 5 -13 10 0 6 -7 10 -15 10 -8 0 -15 5
-15 10 0 6 -3 9 -7 9 -18 -3 -31 2 -51 21 -12 12 -22 18 -22 14 0 -4 -13 5
-30 21 -16 16 -30 26 -30 23 0 -3 -17 11 -38 31 -22 20 -48 43 -58 52 -10 10
-57 56 -103 103 -46 47 -87 86 -92 86 -4 0 -13 8 -18 18 -6 9 -11 14 -11 10 0
-4 -16 4 -36 17 -42 28 -52 30 -76 11z"/>
<path d="M4378 6685 c-3 -14 -2 -25 1 -25 4 0 7 -10 8 -21 1 -12 16 -36 32
-53 17 -18 31 -37 31 -44 0 -7 7 -12 16 -12 8 0 13 -4 9 -10 -6 -10 16 -40 59
-79 17 -14 40 -36 52 -48 12 -13 24 -23 28 -23 6 0 19 -10 50 -37 8 -7 16 -9
20 -6 3 4 6 -2 6 -12 0 -10 3 -16 6 -12 3 3 17 -6 30 -20 13 -14 24 -23 24
-19 0 3 8 -2 18 -11 30 -29 76 -63 85 -63 4 0 6 -4 3 -9 -3 -5 4 -11 17 -15
12 -3 40 -21 62 -40 22 -19 41 -33 43 -31 6 6 52 -43 52 -54 0 -5 9 -13 20
-16 11 -3 20 -13 20 -21 0 -8 4 -14 9 -14 5 0 34 -20 64 -45 31 -25 60 -45 66
-45 5 0 15 -8 20 -17 6 -10 11 -14 11 -10 0 5 6 2 13 -5 8 -7 25 -22 40 -32
14 -11 24 -23 22 -26 -2 -4 2 -7 9 -7 18 0 135 -95 135 -109 1 -10 36 -32 36
-23 0 1 18 -14 40 -34 22 -20 45 -37 52 -37 6 0 13 -3 15 -7 2 -5 35 -31 73
-60 39 -29 89 -67 113 -85 24 -18 47 -32 53 -30 5 1 8 -3 7 -9 -2 -6 19 -26
46 -45 78 -55 126 -97 126 -112 0 -7 5 -10 10 -7 6 3 13 -1 16 -9 3 -9 10 -16
15 -16 13 0 45 -27 131 -112 43 -42 87 -80 98 -83 11 -4 20 -11 20 -16 0 -6 4
-8 9 -4 5 3 17 -5 25 -17 9 -12 16 -18 16 -13 0 6 5 3 10 -6 5 -9 28 -29 52
-45 24 -16 50 -36 58 -45 8 -8 33 -27 55 -42 22 -15 35 -27 30 -27 -6 -1 2 -6
17 -13 23 -10 70 -49 166 -134 14 -13 29 -23 33 -23 5 0 8 -4 7 -8 -2 -5 16
-28 40 -52 23 -23 42 -45 42 -49 0 -4 9 -7 20 -8 37 -3 23 74 -20 117 -9 8
-34 37 -55 65 -41 51 -50 63 -72 89 -7 8 -13 20 -13 26 0 5 -4 10 -10 10 -5 0
-10 7 -10 16 0 8 -4 12 -10 9 -5 -3 -10 -1 -10 5 0 18 -107 115 -170 155 -48
30 -88 65 -76 65 5 0 -4 10 -20 22 -16 13 -30 26 -32 30 -2 5 -10 8 -18 8 -8
0 -17 7 -20 15 -4 8 -10 13 -14 10 -5 -3 -11 4 -15 15 -3 11 -12 20 -18 20 -7
0 -19 9 -27 20 -8 11 -20 20 -26 20 -7 0 -14 3 -16 8 -6 14 -103 89 -145 112
-24 13 -43 27 -43 32 0 4 -4 8 -9 8 -8 0 -111 97 -111 105 0 10 -69 73 -74 68
-3 -4 -6 -1 -6 5 0 7 -7 12 -15 12 -9 0 -18 7 -21 15 -4 8 -12 15 -18 15 -18
0 -78 65 -69 75 5 4 3 5 -4 1 -6 -3 -15 -1 -20 6 -4 7 -24 25 -45 40 -20 15
-43 35 -52 44 -9 8 -16 13 -16 10 0 -3 -16 11 -35 31 -19 20 -35 32 -35 27 0
-5 -5 -1 -11 9 -5 9 -17 17 -24 17 -8 0 -15 5 -15 10 0 6 -5 10 -10 10 -6 0
-22 10 -35 23 -36 34 -68 57 -80 57 -6 0 -17 9 -25 19 -7 11 -17 18 -22 15 -4
-3 -8 0 -8 7 0 14 -59 69 -74 69 -6 0 -20 11 -30 25 -10 14 -23 25 -27 25 -5
0 -28 18 -50 40 -23 22 -44 38 -46 36 -5 -4 -23 9 -76 57 -18 15 -37 27 -43
27 -6 0 -17 7 -24 15 -7 8 -16 13 -20 10 -10 -6 -100 63 -100 77 0 6 -3 9 -6
6 -3 -4 -18 7 -33 23 -15 16 -30 27 -33 24 -3 -3 -28 17 -57 45 -28 27 -54 50
-56 50 -13 2 -65 36 -65 43 0 5 -4 6 -8 3 -5 -3 -15 6 -22 19 -7 14 -17 25
-22 25 -4 0 -8 7 -8 15 0 8 -4 15 -10 15 -5 0 -19 8 -30 17 -10 9 -30 18 -43
20 -20 3 -26 -2 -29 -22z"/>
<path d="M1891 6580 c-4 -8 -6 -21 -5 -27 1 -7 2 -21 3 -31 0 -10 25 -33 56
-53 30 -18 55 -37 55 -41 0 -5 5 -8 11 -8 7 0 20 -10 30 -22 11 -11 19 -18 19
-14 0 13 65 -57 85 -91 11 -18 22 -33 26 -33 4 0 9 -9 12 -20 3 -11 12 -20 21
-20 9 0 16 -5 16 -11 0 -5 4 -8 9 -4 5 3 12 -4 16 -15 3 -11 9 -19 13 -19 21
3 32 -3 32 -17 0 -8 5 -12 10 -9 6 3 10 -1 10 -9 0 -9 3 -16 8 -16 4 0 22 -14
41 -30 18 -17 45 -37 61 -45 15 -8 34 -20 42 -27 7 -7 30 -22 51 -33 20 -11
37 -22 37 -26 0 -4 8 -9 18 -13 16 -5 40 -19 66 -39 6 -4 32 -21 58 -38 25
-16 65 -48 89 -70 23 -22 44 -38 46 -35 2 2 17 -8 33 -22 72 -67 245 -193 248
-182 2 6 10 10 18 10 8 0 13 3 13 8 -1 4 0 9 1 12 6 16 5 70 -2 70 -4 0 -8 7
-8 16 0 17 -36 54 -51 54 -4 0 -20 11 -34 25 -14 14 -25 22 -25 18 0 -4 -5 0
-11 10 -5 9 -14 17 -19 17 -20 0 -151 125 -142 135 4 5 1 5 -6 1 -7 -4 -15 -1
-18 8 -3 9 -12 16 -20 16 -8 0 -14 5 -14 10 0 6 -7 10 -15 10 -8 0 -15 5 -15
10 0 6 -7 10 -15 10 -8 0 -15 5 -15 12 0 6 -3 8 -7 5 -3 -4 -13 2 -20 13 -8
11 -19 18 -24 15 -5 -4 -9 -1 -9 4 0 6 -7 11 -15 11 -9 0 -18 7 -21 15 -4 8
-11 15 -18 15 -6 0 -27 15 -46 33 -19 18 -57 49 -85 68 -71 49 -72 49 -125 99
-69 63 -78 70 -89 70 -6 0 -16 9 -23 20 -7 11 -16 20 -21 20 -4 0 -19 10 -32
23 -13 12 -38 33 -55 47 -17 14 -36 30 -43 35 -22 19 -118 75 -128 75 -5 0 -9
5 -9 10 0 16 -61 7 -69 -10z"/>
<path d="M6400 6587 c-21 -17 -23 -37 -5 -57 8 -9 12 -20 8 -23 -3 -4 -1 -7 6
-7 7 0 29 -16 48 -35 19 -19 39 -35 44 -35 5 0 9 -7 9 -15 0 -8 5 -15 10 -15
12 0 50 -37 50 -48 0 -4 23 -25 51 -47 28 -22 57 -46 65 -53 8 -7 14 -10 14
-5 0 4 4 3 8 -3 9 -13 80 -66 84 -63 3 3 15 -6 76 -59 45 -38 51 -42 61 -42 5
0 11 -3 13 -7 4 -10 72 -69 117 -103 45 -33 109 -88 201 -174 59 -54 100 -64
138 -32 12 11 20 26 18 33 -3 7 -1 13 4 13 6 0 6 9 0 25 -5 14 -7 25 -3 25 3
0 -2 9 -12 20 -10 11 -24 20 -30 20 -7 0 -15 7 -19 15 -3 8 -16 20 -28 26 -42
19 -93 49 -85 49 5 0 -6 12 -25 28 -18 15 -34 30 -36 35 -2 4 -9 7 -16 7 -7 0
-41 26 -75 58 -34 32 -63 56 -66 54 -2 -2 -9 6 -15 18 -6 12 -14 19 -17 16 -3
-3 -17 6 -30 20 -12 14 -23 22 -23 18 0 -4 -12 7 -27 23 -29 32 -117 93 -134
93 -5 0 -9 5 -9 12 0 6 -3 9 -6 5 -6 -6 -39 19 -83 64 -14 14 -39 34 -56 45
-35 22 -48 31 -78 59 -13 11 -29 21 -37 23 -8 2 -22 9 -30 16 -21 16 -62 18
-80 3z"/>
<path d="M6168 6272 c-10 -2 -19 -10 -19 -18 -1 -8 -2 -20 -3 -26 0 -7 7 -24
17 -38 9 -13 17 -21 17 -17 0 6 27 -16 81 -65 10 -10 19 -15 19 -11 0 4 11 -3
25 -17 31 -32 43 -42 80 -66 33 -21 83 -63 127 -107 15 -15 28 -25 28 -22 0 3
11 -6 25 -21 14 -15 25 -23 25 -19 0 5 32 -24 71 -63 39 -40 75 -72 80 -72 6
0 8 -4 5 -9 -5 -8 33 -38 130 -102 13 -9 21 -19 16 -24 -4 -4 -2 -5 4 -2 11 6
60 -24 75 -46 3 -5 10 -8 15 -7 4 1 11 -7 15 -17 4 -10 8 -15 8 -10 1 4 25
-17 54 -46 28 -30 58 -52 65 -50 6 3 12 0 12 -6 0 -7 8 -7 25 1 13 6 22 15 19
19 -3 5 1 9 8 9 8 0 13 13 13 36 1 32 -8 45 -63 100 -35 35 -68 64 -74 64 -5
0 -7 3 -5 8 3 4 -24 30 -60 57 -36 28 -110 94 -164 147 -54 53 -99 94 -99 91
0 -3 -9 4 -20 17 -11 13 -20 20 -20 16 0 -4 -10 2 -22 14 -12 11 -25 20 -28
20 -4 0 -16 8 -28 18 -45 38 -58 48 -85 61 -15 8 -27 18 -27 23 0 4 -6 8 -13
8 -7 0 -20 8 -28 18 -23 25 -69 63 -69 56 0 -3 -12 4 -26 15 -15 11 -30 18
-35 15 -5 -3 -9 0 -9 5 0 6 -9 11 -20 11 -11 0 -20 5 -20 11 0 5 -4 8 -9 4 -5
-3 -15 0 -23 7 -18 18 -69 35 -90 30z"/>
<path d="M4276 6244 c-4 -13 -1 -33 6 -45 20 -31 86 -99 98 -99 5 0 9 -4 8 -9
-2 -5 12 -23 30 -40 17 -17 32 -35 32 -39 0 -5 18 -18 39 -31 37 -20 161 -134
161 -146 0 -4 13 -20 30 -38 16 -18 30 -35 30 -39 0 -5 7 -8 16 -8 8 0 12 -4
9 -10 -3 -5 0 -10 7 -10 8 0 31 -15 51 -34 20 -18 37 -32 37 -29 0 2 11 -7 24
-21 13 -15 29 -26 35 -26 7 0 10 -4 7 -8 -3 -5 7 -15 22 -23 29 -15 33 -18 71
-49 13 -11 28 -20 33 -20 4 0 8 -7 8 -15 0 -8 6 -15 13 -15 7 0 28 -16 47 -35
19 -19 41 -35 48 -35 6 0 12 -4 12 -10 0 -5 5 -10 10 -10 6 0 16 -4 23 -10 55
-45 94 -79 119 -102 15 -15 28 -25 28 -22 0 8 50 -29 130 -98 8 -7 15 -11 16
-8 0 3 17 -12 37 -33 21 -20 37 -34 37 -31 0 4 9 -3 20 -16 11 -13 20 -20 20
-15 0 4 12 -4 26 -19 15 -14 33 -26 40 -26 8 0 14 -4 14 -8 0 -4 12 -15 28
-25 28 -17 66 -49 137 -116 22 -21 72 -61 112 -89 68 -48 109 -80 139 -110 8
-7 14 -10 14 -5 0 4 5 0 11 -9 5 -10 16 -18 24 -18 8 0 25 -11 38 -24 14 -14
28 -22 31 -19 3 4 6 1 6 -5 0 -7 4 -12 10 -12 18 0 189 -131 198 -152 2 -5 10
-8 18 -8 8 0 14 -4 14 -8 0 -13 97 -112 110 -112 6 0 8 -4 5 -10 -3 -5 0 -10
8 -10 8 0 18 -7 21 -16 3 -8 10 -13 15 -9 5 3 12 -4 16 -15 3 -11 11 -20 16
-20 8 0 62 -48 161 -142 10 -10 20 -18 23 -18 3 0 15 -9 27 -20 13 -10 27 -19
31 -19 5 0 17 -9 26 -20 10 -12 23 -21 30 -21 6 0 16 -9 23 -20 7 -11 18 -20
25 -20 7 0 13 -4 13 -10 0 -5 6 -10 14 -10 8 0 27 -13 43 -30 38 -40 69 -40
69 0 0 17 -3 30 -8 30 -4 0 -8 6 -8 14 0 7 -14 27 -30 45 -17 17 -28 31 -26
31 5 0 -72 86 -127 142 -27 26 -53 48 -58 48 -6 0 -7 5 -4 10 3 6 -1 10 -9 10
-8 0 -20 8 -25 18 -6 9 -11 13 -11 9 0 -4 -10 1 -22 13 -12 11 -28 20 -35 20
-8 0 -11 5 -8 10 3 6 -1 10 -9 10 -9 0 -16 7 -16 15 0 8 -4 15 -9 15 -5 0 -39
29 -76 65 -38 36 -72 65 -77 65 -5 0 -6 5 -3 10 3 6 1 10 -5 10 -6 0 -17 6
-24 13 -7 6 -28 23 -46 37 -18 14 -43 34 -54 45 -12 11 -39 34 -61 50 -22 16
-50 39 -61 52 -12 13 -25 23 -30 23 -5 0 -16 9 -24 20 -8 11 -18 20 -22 20 -7
0 -73 47 -120 86 -10 7 -18 11 -18 7 0 -3 -11 6 -25 21 -14 15 -25 24 -25 20
0 -4 -7 1 -16 12 -8 10 -12 12 -8 4 7 -16 -30 14 -78 62 -16 16 -32 27 -37 25
-8 -2 -106 78 -152 126 -14 15 -29 27 -33 27 -8 0 -58 44 -135 118 -30 28 -58
52 -62 52 -5 0 -6 7 -3 15 4 8 1 15 -5 15 -6 0 -11 5 -11 11 0 6 -7 17 -15 25
-8 9 -15 13 -15 10 0 -3 -8 1 -17 10 -15 13 -47 35 -132 89 -31 20 -96 71
-123 95 -15 14 -39 32 -54 40 -15 8 -44 32 -63 53 -32 35 -45 47 -85 82 -6 6
-23 16 -38 24 -16 8 -28 18 -28 23 0 5 -4 6 -10 3 -5 -3 -10 -1 -10 5 0 6 -4
9 -8 6 -5 -3 -15 4 -22 15 -8 10 -20 19 -27 19 -7 0 -13 5 -13 10 0 6 -4 9 -8
8 -5 -2 -34 23 -65 55 -31 32 -57 56 -57 53 0 -2 -15 10 -33 27 -18 18 -31 35
-29 40 2 4 -4 7 -13 7 -9 0 -13 5 -10 10 3 6 -1 10 -9 10 -9 0 -16 5 -16 10 0
6 -6 10 -13 10 -6 0 -31 17 -54 39 -23 21 -45 36 -48 33 -3 -3 -5 0 -5 6 0 6
-9 14 -21 17 -20 7 -44 23 -74 52 -7 7 -15 9 -19 6 -3 -4 -6 -1 -6 5 0 12 -32
25 -67 27 -15 1 -23 -5 -27 -21z"/>
<path d="M1799 6173 c-16 -4 -33 -38 -29 -58 1 -5 3 -19 4 -30 1 -12 5 -26 9
-32 10 -15 95 -73 108 -73 5 0 37 -27 69 -60 33 -34 60 -58 60 -55 0 4 7 0 15
-7 34 -31 43 -36 49 -31 3 4 6 -1 6 -10 0 -9 7 -17 15 -17 7 0 19 -8 24 -17 6
-10 11 -14 11 -9 0 5 9 -1 20 -14 11 -13 20 -20 20 -16 0 8 15 -4 66 -51 19
-17 38 -33 42 -35 32 -13 102 -66 107 -81 4 -9 11 -15 16 -12 5 4 12 -1 15 -9
3 -9 11 -16 18 -16 6 0 19 -8 28 -17 21 -23 46 -43 52 -43 3 0 22 -16 43 -35
21 -19 41 -35 45 -35 4 0 18 -10 31 -22 14 -13 43 -39 66 -58 22 -19 48 -41
56 -48 8 -7 15 -11 15 -7 0 3 10 -4 23 -16 32 -30 104 -79 116 -79 6 0 11 -4
11 -9 0 -5 15 -16 34 -25 18 -8 39 -22 46 -31 16 -19 39 -19 46 0 4 8 9 13 13
11 3 -2 6 17 6 42 0 31 -5 47 -15 50 -8 3 -23 13 -34 24 -11 10 -25 18 -32 18
-7 0 -14 3 -16 8 -1 4 -25 25 -53 47 -27 21 -67 55 -89 75 -65 60 -71 65 -96
78 -14 7 -53 38 -87 70 -64 59 -119 105 -134 110 -5 2 -9 11 -9 20 0 8 -3 13
-6 9 -3 -3 -16 5 -29 19 -12 13 -28 24 -35 24 -7 0 -11 3 -7 6 5 5 -26 37
-110 114 -12 11 -26 19 -30 18 -10 -3 -73 60 -73 73 0 6 -4 7 -10 4 -9 -6 -18
0 -55 33 -7 6 -17 12 -22 12 -5 0 -16 8 -25 19 -20 24 -178 127 -190 124 -4
-2 -8 4 -8 13 0 8 -4 12 -10 9 -5 -3 -10 -2 -10 4 0 15 -63 31 -91 24z"/>
<path d="M4221 5803 c-1 -7 -4 -12 -8 -12 -24 4 -33 -4 -33 -28 0 -40 34 -91
75 -110 19 -9 32 -20 30 -24 -3 -4 2 -10 11 -13 9 -3 14 -11 12 -17 -7 -20 73
-106 120 -130 15 -7 34 -20 43 -29 8 -8 29 -26 46 -40 18 -13 29 -29 26 -34
-3 -5 -1 -6 5 -2 6 3 20 -6 31 -20 12 -15 21 -24 21 -20 0 3 8 -1 18 -10 9 -9
51 -37 92 -64 41 -27 85 -58 97 -69 12 -12 27 -21 33 -21 5 0 10 -5 10 -12 0
-6 3 -9 6 -5 4 3 12 1 19 -6 6 -7 34 -30 60 -52 58 -48 106 -95 160 -158 22
-25 44 -46 48 -47 4 0 20 -8 35 -19 15 -10 76 -51 137 -91 60 -40 120 -83 134
-96 14 -13 28 -21 33 -18 4 3 8 1 8 -5 0 -11 19 -31 93 -94 27 -23 49 -40 50
-37 2 3 40 -31 86 -75 122 -117 120 -115 129 -115 4 0 20 -11 36 -25 16 -14
33 -25 37 -25 4 0 16 -13 26 -30 9 -16 23 -30 30 -30 7 0 13 -4 13 -10 0 -5 7
-10 15 -10 8 0 15 -4 15 -8 0 -4 12 -15 28 -24 15 -10 45 -34 67 -55 23 -21
58 -47 78 -58 20 -11 37 -23 37 -27 0 -5 8 -8 17 -8 9 0 14 -3 10 -6 -7 -7 17
-34 30 -34 4 0 26 -16 48 -35 22 -19 43 -35 48 -35 4 0 7 -7 7 -15 0 -8 7 -15
15 -15 8 0 15 -4 15 -10 0 -5 7 -10 16 -10 9 0 12 -5 8 -12 -5 -8 -2 -9 9 -5
12 4 17 1 17 -10 0 -9 3 -14 6 -11 3 4 21 -8 39 -25 51 -47 59 -53 94 -71 18
-10 40 -25 49 -34 10 -9 40 -35 67 -57 28 -22 52 -43 53 -47 2 -5 10 -8 18 -8
8 0 14 -3 14 -8 0 -4 13 -13 29 -20 16 -7 43 -26 60 -42 17 -17 35 -30 41 -30
5 0 10 -4 10 -10 0 -5 6 -10 13 -10 6 0 28 -14 47 -30 19 -17 74 -63 122 -103
48 -39 90 -80 93 -89 4 -10 13 -18 21 -18 8 0 14 -4 14 -10 0 -14 57 -67 72
-67 9 0 14 16 15 49 0 26 -3 48 -8 48 -5 0 -9 13 -9 28 0 16 -6 37 -14 47 -8
11 -11 26 -8 35 3 8 1 12 -3 8 -5 -5 -13 2 -19 15 -7 12 -41 44 -76 71 -36 26
-83 62 -104 80 -21 17 -53 39 -70 50 -17 10 -57 45 -88 77 -32 32 -62 59 -68
59 -6 0 -8 5 -5 10 3 6 0 10 -8 10 -8 0 -17 7 -21 15 -3 8 -12 15 -21 15 -8 0
-15 5 -15 10 0 6 -7 10 -15 10 -8 0 -15 3 -15 8 0 4 -13 16 -29 27 -16 10 -27
24 -24 30 4 5 3 7 -2 3 -4 -4 -15 -2 -23 5 -13 10 -14 9 -7 -3 5 -8 -5 -1 -22
15 -62 60 -72 67 -82 60 -6 -3 -14 1 -17 9 -3 9 -13 16 -21 16 -8 0 -11 5 -8
10 3 6 1 10 -5 10 -7 0 -22 8 -35 18 -12 9 -33 24 -45 32 -12 8 -28 21 -36 28
-7 6 -17 12 -22 12 -6 0 -26 16 -46 35 -20 19 -48 41 -64 49 -32 17 -113 82
-108 87 2 2 -12 18 -31 36 -18 17 -33 30 -33 28 0 -1 -20 16 -45 39 -62 57
-70 64 -110 87 -19 12 -35 25 -35 30 0 5 -6 9 -13 9 -8 0 -24 11 -37 25 -12
13 -27 22 -31 19 -5 -3 -9 -1 -9 4 0 5 -13 15 -30 22 -16 7 -30 17 -30 23 0 6
-3 8 -6 4 -3 -3 -21 10 -39 29 -18 19 -38 34 -44 34 -6 0 -11 3 -11 8 0 4 -20
20 -45 35 -25 16 -45 32 -45 37 0 4 -19 20 -42 35 -23 15 -58 43 -78 61 -19
18 -48 44 -65 58 -16 14 -27 26 -23 26 4 0 -3 10 -15 23 -12 13 -24 23 -27 22
-3 -1 -15 9 -27 22 -12 13 -19 23 -16 23 3 0 -13 18 -36 40 -23 22 -39 40 -37
40 3 0 -2 9 -11 19 -9 11 -20 18 -25 15 -4 -3 -8 -1 -8 5 0 6 -26 28 -57 50
-66 45 -164 137 -155 145 3 3 1 6 -5 6 -6 0 -30 18 -54 39 -23 22 -46 38 -50
35 -4 -2 -9 -1 -11 3 -1 5 -17 19 -33 33 -17 14 -32 28 -33 33 -1 4 -5 7 -8 6
-3 0 -14 11 -25 25 -11 15 -26 26 -33 26 -7 0 -22 9 -34 20 -12 12 -22 18 -22
15 0 -4 -7 0 -15 8 -8 8 -31 25 -52 38 -21 13 -41 28 -45 33 -4 6 -8 7 -8 3 0
-4 -12 4 -27 18 -15 14 -32 25 -36 25 -5 0 -23 11 -39 25 -16 14 -33 23 -38
20 -4 -3 -10 2 -14 10 -3 8 -15 15 -26 15 -11 0 -20 5 -20 10 0 6 -5 10 -10
10 -6 0 -24 14 -42 30 -17 17 -37 29 -44 26 -7 -3 -15 0 -18 7 -3 9 -5 9 -5 0z"/>
<path d="M1733 5720 c-19 -8 -23 -17 -23 -50 0 -22 5 -40 10 -40 6 0 10 -6 10
-14 0 -7 33 -36 73 -64 73 -51 131 -101 135 -115 3 -12 69 -67 81 -67 6 0 11
-8 11 -17 0 -9 2 -14 5 -11 6 6 48 -28 120 -97 23 -22 67 -62 99 -90 32 -27
64 -55 71 -62 7 -7 15 -9 19 -6 3 4 6 1 6 -5 0 -7 5 -12 11 -12 6 0 25 -11 43
-25 18 -14 38 -25 44 -25 7 0 12 -4 12 -10 0 -5 7 -10 15 -10 8 0 15 -5 15
-12 0 -6 3 -9 6 -5 6 6 19 -2 59 -39 13 -12 26 -19 29 -17 3 3 14 -5 25 -18
11 -13 20 -21 21 -18 0 4 18 -11 40 -32 22 -22 45 -39 51 -39 5 0 7 -4 4 -10
-3 -5 -1 -10 4 -10 14 0 52 -31 121 -100 54 -55 96 -73 106 -45 13 33 9 51
-15 77 -38 40 -51 56 -51 64 0 9 -142 144 -152 144 -4 0 -8 6 -8 14 0 8 -9 18
-20 21 -11 3 -20 11 -20 17 0 6 -3 9 -6 5 -3 -3 -13 2 -23 11 -9 10 -49 46
-89 81 -39 35 -68 69 -65 74 3 6 1 7 -4 4 -6 -4 -21 3 -34 16 -13 12 -42 36
-64 52 -22 16 -43 34 -47 39 -4 6 -8 7 -8 2 0 -4 -15 3 -34 18 -19 14 -39 26
-45 26 -5 0 -17 10 -26 23 -8 12 -18 21 -20 20 -3 -2 -9 -3 -13 -3 -8 0 -162
150 -162 157 0 3 -7 11 -15 19 -8 9 -15 13 -15 11 0 -3 -16 10 -36 28 -50 46
-73 65 -79 65 -6 0 -39 26 -70 55 -12 11 -28 21 -36 21 -8 1 -21 4 -29 7 -8 3
-25 2 -37 -3z"/>
<path d="M4124 5292 c-8 -7 -14 -19 -14 -26 0 -19 85 -93 101 -88 8 3 11 2 8
-2 -4 -4 6 -20 22 -37 15 -16 33 -43 40 -59 7 -16 17 -26 21 -24 4 3 8 1 8 -5
0 -6 24 -26 53 -44 28 -19 67 -49 86 -66 19 -17 38 -31 42 -31 4 0 37 -29 73
-64 36 -35 66 -61 66 -59 0 9 100 -70 146 -114 7 -7 17 -13 23 -13 5 0 17 -10
25 -22 9 -12 16 -19 16 -15 0 8 15 -3 55 -41 14 -13 25 -20 25 -17 0 9 19 -12
52 -56 15 -20 24 -39 21 -43 -4 -3 1 -6 11 -6 9 0 14 -4 11 -10 -3 -5 3 -10
14 -10 12 0 21 -4 21 -10 0 -5 8 -10 18 -11 9 0 29 -8 44 -17 57 -36 183 -126
193 -137 6 -7 26 -23 45 -36 67 -45 119 -92 114 -100 -3 -5 2 -9 11 -9 10 0
13 -5 9 -12 -4 -7 -4 -10 0 -7 4 4 39 -15 79 -41 39 -27 76 -46 81 -43 5 3 6
1 2 -5 -4 -7 -1 -12 9 -12 9 0 13 -4 10 -10 -3 -5 -2 -10 4 -10 8 0 50 -36
122 -105 9 -8 21 -15 27 -15 7 0 12 -7 12 -17 0 -9 3 -13 6 -10 4 4 20 -8 35
-26 16 -17 29 -29 29 -24 0 4 13 -5 29 -19 16 -14 32 -24 35 -22 3 1 13 -7 21
-19 9 -13 23 -23 32 -23 9 0 14 -3 10 -6 -7 -7 63 -70 75 -66 4 1 8 -4 8 -11
0 -6 12 -18 28 -24 15 -7 41 -25 58 -40 17 -16 49 -43 72 -61 22 -19 52 -44
65 -55 79 -71 97 -87 97 -82 0 4 6 0 13 -7 8 -7 26 -22 41 -33 15 -11 54 -46
86 -77 32 -32 61 -58 64 -58 7 0 41 -27 73 -57 13 -13 26 -23 28 -23 12 0 45
-36 45 -48 0 -7 4 -11 9 -8 5 3 20 -4 34 -17 13 -12 41 -37 61 -55 21 -18 42
-33 49 -35 6 -1 23 -12 37 -25 14 -12 33 -25 44 -28 17 -6 42 -23 72 -52 8 -7
14 -11 14 -8 0 3 14 -8 30 -24 17 -17 37 -30 44 -30 8 0 16 -7 20 -15 3 -8 12
-15 21 -15 8 0 15 -5 15 -11 0 -5 5 -7 10 -4 6 3 10 3 10 -2 0 -11 115 -103
129 -103 6 0 11 -4 11 -10 0 -5 7 -10 15 -10 8 0 15 -4 15 -10 0 -5 7 -10 16
-10 8 0 12 -4 9 -10 -3 -5 -1 -10 6 -10 6 0 19 -8 28 -18 20 -23 93 -68 104
-64 5 1 6 -2 3 -7 -4 -5 -2 -12 4 -16 5 -3 10 -1 10 5 0 6 5 8 13 4 9 -6 9 -5
0 8 -7 8 -10 18 -7 21 4 4 -1 18 -10 33 -10 14 -15 28 -12 31 3 3 -3 18 -14
33 -11 16 -20 32 -20 37 -1 9 -69 54 -112 74 -16 7 -28 17 -28 22 0 6 -3 8 -6
4 -3 -3 -18 5 -32 19 -15 13 -30 24 -34 24 -5 0 -8 7 -8 16 0 8 -4 12 -10 9
-5 -3 -10 -2 -10 3 0 9 -70 56 -78 53 -1 -1 -16 14 -33 33 -17 20 -47 45 -67
58 -20 12 -48 33 -62 45 -14 13 -28 23 -32 23 -5 0 -8 7 -8 15 0 8 -4 15 -9
15 -5 0 -23 14 -41 30 -18 17 -35 30 -39 30 -3 0 -22 14 -41 30 -19 16 -40 34
-47 40 -7 5 -16 10 -22 10 -5 0 -11 4 -13 9 -1 5 -9 11 -16 13 -7 2 -71 60
-142 129 -71 70 -132 124 -135 121 -3 -3 -12 4 -21 16 -8 12 -20 20 -25 17 -5
-4 -9 0 -9 8 0 15 -108 113 -121 110 -4 -2 -11 6 -14 17 -4 11 -13 20 -20 20
-18 0 -116 86 -108 94 4 3 -1 6 -10 6 -9 0 -17 5 -17 10 0 6 -6 10 -14 10 -8
0 -16 3 -18 8 -1 4 -23 23 -48 42 -25 19 -48 39 -52 45 -4 5 -8 7 -8 4 0 -4
-17 10 -38 30 -21 20 -55 49 -75 65 -20 15 -34 33 -30 39 3 6 1 7 -5 3 -7 -4
-12 -3 -12 1 0 5 -16 17 -37 28 -20 11 -56 39 -80 62 -23 23 -43 40 -43 37 0
-3 -7 1 -15 8 -32 29 -45 39 -45 33 0 -3 -10 3 -22 15 -12 11 -28 20 -35 20
-7 0 -13 3 -13 8 0 4 -21 20 -48 37 -26 16 -50 33 -53 38 -3 5 -9 8 -13 8 -7
-1 -54 28 -72 44 -6 5 -35 30 -64 55 -29 25 -58 51 -64 58 -30 36 -72 72 -84
72 -7 0 -15 7 -18 15 -4 8 -13 15 -21 15 -8 0 -11 5 -8 10 3 6 2 10 -3 10 -5
0 -15 11 -22 25 -7 14 -15 23 -17 21 -5 -4 -64 47 -134 115 -27 26 -51 44 -54
41 -3 -3 -5 1 -5 8 0 7 -3 11 -6 7 -5 -5 -27 10 -59 40 -7 7 -15 9 -19 6 -3
-4 -6 1 -6 10 0 9 -5 17 -10 17 -6 0 -22 10 -35 23 -13 12 -30 27 -37 32 -7 6
-34 27 -60 48 -25 20 -49 37 -52 37 -6 0 -14 6 -74 57 -15 13 -31 23 -35 23
-5 0 -5 5 -2 10 3 6 -1 10 -9 10 -9 0 -15 3 -14 8 2 4 -10 19 -25 34 -15 15
-27 25 -27 21 0 -3 -13 9 -30 27 -16 18 -30 29 -30 25 0 -5 -8 -1 -17 7 -75
63 -207 102 -239 70z"/>
<path d="M1623 5261 c-16 -26 -5 -74 22 -96 14 -12 25 -26 25 -33 0 -7 5 -12
10 -12 6 0 32 -22 58 -48 26 -26 65 -61 87 -77 22 -16 52 -40 66 -54 69 -69
154 -141 166 -141 7 0 13 -4 13 -8 0 -5 12 -14 26 -20 16 -8 22 -17 18 -25 -4
-6 -4 -9 1 -5 4 4 19 -4 32 -18 12 -14 23 -22 23 -19 0 3 12 -5 26 -19 15 -13
38 -30 53 -37 14 -8 38 -25 53 -39 44 -41 56 -49 62 -43 3 4 6 2 6 -4 0 -6 22
-25 49 -42 27 -17 58 -39 69 -49 11 -9 35 -28 52 -42 17 -14 51 -44 75 -67 23
-23 46 -39 49 -36 3 4 6 2 6 -4 0 -5 12 -15 27 -22 15 -7 43 -25 62 -40 52
-40 68 -44 89 -20 20 20 27 75 12 84 -5 3 -7 12 -3 20 3 8 0 15 -6 15 -6 0
-20 9 -31 20 -11 11 -27 20 -35 20 -8 0 -15 5 -15 11 0 5 -4 8 -9 4 -5 -3 -15
1 -23 8 -7 7 -25 18 -40 24 -16 7 -28 18 -28 24 0 6 -7 9 -15 5 -8 -3 -21 4
-30 17 -8 12 -15 18 -15 14 0 -4 -11 2 -24 15 -52 49 -86 77 -86 71 0 -3 -8 4
-19 15 -10 12 -21 19 -25 15 -3 -3 -6 1 -6 11 0 9 -4 15 -8 12 -5 -3 -21 7
-38 21 -16 13 -49 41 -73 61 -69 58 -90 80 -85 85 3 3 -4 8 -15 12 -12 3 -21
13 -21 21 0 8 -3 13 -7 12 -5 -2 -20 9 -34 22 -35 33 -82 72 -101 85 -70 45
-138 98 -164 126 -17 19 -47 48 -67 65 -20 17 -33 34 -30 38 4 3 0 6 -8 6 -9
0 -24 8 -35 18 -64 58 -121 76 -141 43z"/>
<path d="M4042 4905 c-9 -14 -11 -65 -2 -65 4 0 12 -10 19 -23 7 -13 28 -31
47 -42 19 -10 34 -21 34 -25 0 -4 14 -22 30 -41 51 -58 60 -69 60 -74 0 -28
163 -195 190 -195 6 0 10 -4 10 -9 0 -5 8 -12 18 -15 9 -4 37 -24 62 -45 24
-22 48 -37 52 -35 4 3 8 2 8 -3 0 -4 17 -19 38 -33 20 -14 40 -29 44 -35 4 -5
8 -6 8 -1 0 5 8 -1 19 -12 10 -12 21 -19 25 -15 3 3 6 1 6 -5 0 -7 19 -24 43
-39 60 -38 87 -64 80 -76 -3 -6 -1 -7 5 -3 7 4 12 2 12 -5 0 -7 3 -10 6 -6 3
3 18 -5 32 -19 15 -13 31 -24 37 -24 5 0 27 -15 47 -33 59 -52 78 -67 83 -67
3 0 26 -20 53 -45 26 -25 50 -45 55 -45 4 0 7 -6 7 -13 0 -8 14 -26 30 -40 17
-15 30 -25 30 -22 0 2 15 -11 34 -30 19 -18 37 -31 40 -28 3 4 6 -1 6 -10 0
-10 5 -14 15 -11 8 4 15 2 15 -3 0 -5 7 -10 15 -10 8 0 15 4 15 9 0 4 7 8 15
8 8 0 15 8 16 18 3 66 0 95 -12 103 -8 5 -10 9 -6 9 5 0 -12 16 -37 35 -25 19
-73 62 -106 95 -33 33 -67 60 -75 60 -8 0 -15 4 -15 9 0 5 -13 14 -30 21 -16
7 -28 15 -26 19 3 4 -20 22 -50 41 -30 19 -54 38 -54 43 0 4 -6 7 -12 7 -7 1
-26 19 -43 40 -16 21 -36 39 -42 40 -7 0 -13 4 -13 9 0 5 -9 13 -20 16 -25 8
-76 54 -73 66 2 5 -1 9 -5 9 -5 0 -24 14 -43 31 -19 17 -52 43 -74 58 -52 34
-66 47 -57 56 4 4 2 5 -3 3 -11 -3 -127 82 -167 124 -14 15 -31 28 -37 28 -11
0 -49 31 -96 76 -12 12 -37 30 -55 39 -19 10 -58 42 -88 71 -29 30 -58 54 -63
54 -5 0 -9 4 -9 8 0 11 -40 9 -48 -3z"/>
<path d="M1574 4785 c-16 -17 -13 -115 3 -115 8 0 12 -4 9 -9 -3 -5 13 -21 36
-36 46 -31 58 -40 91 -70 12 -12 45 -36 74 -55 28 -19 49 -38 47 -42 -3 -4 0
-8 7 -8 10 0 29 -14 110 -83 14 -12 47 -38 75 -57 27 -19 51 -38 52 -42 2 -5
8 -6 13 -2 5 3 9 -2 9 -10 0 -9 6 -15 13 -14 6 2 11 -3 9 -10 -1 -8 3 -12 10
-10 7 3 26 -8 43 -24 16 -15 35 -28 41 -28 7 0 14 -7 18 -15 3 -8 13 -15 21
-15 9 0 13 -4 10 -10 -3 -6 1 -7 9 -4 9 3 16 1 16 -4 0 -6 13 -19 29 -28 17
-10 27 -22 24 -27 -3 -6 -2 -7 4 -4 5 4 19 -2 29 -11 10 -10 27 -21 37 -25 9
-3 17 -11 17 -17 0 -5 5 -10 10 -10 6 0 24 -13 39 -29 16 -16 32 -27 35 -24 3
4 6 1 6 -6 0 -7 3 -10 8 -8 4 3 13 -1 20 -9 7 -8 10 -14 6 -14 -4 0 3 -8 14
-19 12 -10 22 -21 22 -24 0 -9 40 -47 88 -86 30 -23 49 -31 65 -27 27 6 62 62
59 93 -2 20 -33 62 -47 63 -12 1 -70 37 -91 58 -13 12 -30 22 -39 22 -9 0 -13
5 -10 10 3 6 -2 13 -12 17 -10 3 -34 19 -53 35 -19 15 -41 28 -48 28 -7 0 -11
4 -7 9 3 5 -3 12 -13 15 -10 4 -25 18 -32 31 -7 14 -19 25 -26 25 -7 0 -24 14
-37 30 -14 17 -30 30 -36 30 -6 0 -13 11 -17 25 -4 14 -9 24 -12 21 -3 -3 -13
4 -23 16 -11 11 -19 17 -19 12 0 -5 -5 -1 -11 9 -5 9 -17 17 -24 17 -8 0 -15
5 -15 10 0 6 -7 10 -15 10 -8 0 -15 5 -15 11 0 5 -5 7 -10 4 -6 -3 -13 1 -16
9 -3 9 -10 14 -14 11 -4 -3 -10 2 -14 10 -3 8 -12 15 -21 15 -8 0 -15 5 -15
10 0 6 -5 10 -11 10 -11 0 -111 79 -117 93 -2 4 -8 7 -13 7 -6 0 -15 5 -22 10
-7 6 -23 20 -37 31 -27 22 -92 77 -143 121 -18 15 -36 28 -40 28 -5 0 -5 5 -1
12 4 7 3 8 -5 4 -7 -5 -25 6 -45 28 -19 19 -36 32 -40 29 -3 -4 -6 -1 -6 5 0
14 -43 12 -56 -3z"/>
<path d="M3984 4466 c-16 -9 -20 -21 -20 -60 0 -54 7 -65 77 -116 23 -16 39
-30 35 -30 -4 0 9 -13 27 -30 19 -16 40 -30 46 -30 6 0 11 -5 11 -11 0 -5 3
-8 8 -6 10 7 32 -19 24 -29 -4 -4 -2 -4 4 -1 6 4 19 -2 29 -13 10 -11 14 -20
9 -20 -5 0 5 -10 23 -21 18 -11 35 -28 38 -37 3 -9 26 -33 49 -52 24 -19 41
-38 39 -42 -2 -5 1 -8 7 -8 18 0 120 -96 120 -114 0 -5 3 -6 6 -3 4 4 21 -9
39 -28 17 -19 34 -35 38 -35 7 0 32 -20 71 -57 13 -13 29 -23 35 -23 7 0 10
-4 7 -8 -3 -5 6 -15 19 -22 13 -7 22 -17 19 -22 -3 -4 2 -8 10 -8 8 0 17 -8
21 -18 3 -11 15 -24 28 -31 12 -6 36 -20 52 -31 17 -11 40 -24 52 -29 12 -6
31 -18 41 -28 34 -32 72 -63 72 -58 0 3 10 -4 23 -15 26 -25 129 -95 139 -95
4 0 15 -7 25 -15 10 -8 33 -27 50 -42 37 -30 78 -28 70 3 -3 11 -2 19 3 19 9
0 6 62 -4 78 -4 7 -24 21 -44 31 -20 11 -58 39 -83 63 -64 60 -98 88 -107 88
-13 0 -91 88 -84 96 4 4 2 4 -4 1 -6 -3 -21 4 -35 16 -13 12 -37 29 -52 37
-16 8 -39 27 -52 42 -13 15 -28 28 -34 28 -5 0 -11 3 -13 8 -1 4 -30 29 -63
57 -33 27 -64 55 -68 62 -4 7 -15 13 -24 13 -9 0 -14 3 -11 6 4 3 -28 39 -69
81 -41 41 -77 72 -80 69 -3 -3 -10 -1 -17 4 -59 49 -75 60 -85 60 -6 0 -11 5
-11 10 0 6 -6 10 -13 10 -7 0 -26 14 -42 30 -16 17 -35 30 -42 30 -7 0 -13 5
-13 11 0 5 -4 7 -10 4 -5 -3 -10 1 -10 9 0 9 -3 15 -8 13 -11 -3 -62 39 -62
53 0 6 -4 8 -10 5 -5 -3 -10 -2 -10 2 0 5 -16 26 -35 46 -19 20 -35 35 -35 32
0 -3 -11 5 -25 19 -14 14 -25 31 -25 37 0 7 -3 9 -7 6 -3 -4 -13 -1 -22 6 -12
11 -21 11 -37 3z"/>
<path d="M1496 4303 c-10 -24 -7 -65 4 -58 6 3 10 0 10 -8 0 -8 14 -29 30 -47
17 -18 30 -34 30 -36 0 -1 11 -15 25 -30 13 -14 22 -31 18 -37 -3 -6 -1 -7 6
-3 6 4 14 0 17 -8 3 -9 13 -16 21 -16 8 0 11 -4 8 -10 -3 -5 1 -10 9 -10 9 0
16 -4 16 -10 0 -5 7 -10 16 -10 8 0 12 -4 9 -10 -3 -5 -1 -10 5 -10 6 0 16 -4
23 -10 58 -47 77 -61 77 -55 0 3 11 -4 25 -17 56 -52 73 -65 145 -113 41 -27
78 -54 82 -60 4 -5 8 -7 8 -3 0 8 37 -21 83 -64 16 -16 32 -28 37 -28 4 0 10
-7 14 -15 3 -8 12 -15 21 -15 8 0 15 -4 15 -10 0 -5 7 -10 15 -10 9 0 18 -7
21 -15 4 -8 10 -13 14 -10 5 3 11 -4 15 -15 3 -11 12 -20 18 -20 7 0 29 -18
51 -40 21 -21 80 -65 130 -97 50 -31 93 -61 94 -65 2 -5 8 -6 13 -2 5 3 9 0 9
-5 0 -12 29 -14 54 -5 9 3 13 10 10 15 -3 5 0 9 5 9 6 0 11 16 11 35 0 19 -4
35 -10 35 -5 0 -10 4 -10 10 0 10 -95 103 -112 109 -6 2 -19 11 -30 20 -10 9
-21 14 -25 13 -3 -2 -9 0 -12 5 -3 4 -41 26 -83 48 -43 22 -78 43 -78 47 0 4
-8 9 -17 12 -24 8 -83 61 -83 74 0 6 -5 14 -12 18 -7 5 -8 3 -3 -6 5 -9 4 -11
-3 -6 -7 4 -12 14 -12 22 0 8 -4 13 -10 9 -10 -6 -35 12 -81 57 -15 15 -30 24
-33 21 -3 -4 -6 -2 -6 4 0 12 -68 83 -79 83 -3 0 -15 11 -25 25 -10 14 -23 25
-28 25 -9 0 -25 12 -64 48 -14 12 -29 22 -34 22 -6 0 -10 4 -10 8 0 14 -36 52
-49 52 -7 0 -9 5 -5 12 4 7 3 8 -5 4 -6 -4 -17 -1 -24 6 -8 7 -28 24 -47 38
-18 14 -41 33 -50 42 -10 9 -20 14 -23 12 -2 -2 -20 11 -39 29 -39 36 -102 48
-112 20z"/>
<path d="M3893 3985 c-19 -13 -21 -19 -11 -40 6 -14 15 -25 20 -25 4 0 8 -5 8
-11 0 -7 11 -21 23 -33 13 -11 44 -39 68 -61 25 -22 46 -44 48 -50 9 -30 133
-162 221 -235 23 -19 51 -43 61 -52 10 -10 21 -18 24 -18 5 0 37 -25 60 -47 8
-7 18 -13 24 -13 6 0 11 -5 11 -12 0 -6 3 -9 6 -5 3 3 16 -4 28 -16 12 -12 37
-33 55 -47 18 -14 39 -31 47 -38 8 -7 14 -11 14 -7 0 4 7 0 15 -9 9 -8 37 -32
63 -53 26 -21 50 -42 54 -48 4 -5 8 -6 8 -1 0 5 11 -3 25 -18 14 -15 25 -25
25 -22 0 2 15 -10 33 -27 19 -18 32 -35 30 -40 -3 -4 -1 -7 4 -6 16 2 53 -13
53 -23 0 -5 5 -6 10 -3 6 3 10 -1 10 -9 0 -9 4 -16 9 -16 5 0 26 -16 47 -35
21 -19 42 -35 47 -35 4 0 5 -4 2 -10 -3 -5 -1 -10 5 -10 6 0 25 -13 43 -30 18
-16 35 -30 39 -30 4 0 24 -16 44 -35 54 -53 92 -40 89 30 -1 42 -6 51 -51 91
-27 24 -53 44 -57 44 -5 0 -6 4 -3 9 3 4 -6 18 -19 31 -13 13 -22 27 -19 31 3
5 1 9 -4 9 -5 0 -18 8 -30 18 -45 37 -66 52 -75 52 -4 0 -6 4 -2 9 3 5 -5 13
-17 17 -13 4 -31 16 -40 27 -10 11 -18 17 -18 13 0 -11 -148 109 -231 187 -11
9 -21 17 -24 17 -4 0 -25 16 -59 45 -6 6 -18 11 -26 13 -8 2 -16 8 -18 13 -2
5 -10 9 -18 9 -8 0 -14 5 -14 12 0 6 -2 9 -5 6 -3 -3 -28 17 -55 43 -28 27
-50 46 -50 43 0 -2 -11 5 -24 18 -13 13 -34 32 -47 42 -44 35 -99 86 -93 86
12 0 -73 70 -98 81 -16 6 -28 15 -28 20 0 5 -3 8 -7 8 -20 -3 -34 2 -28 11 3
6 1 10 -5 10 -6 0 -38 27 -69 60 -32 33 -63 60 -69 60 -7 0 -12 5 -12 10 0 15
-22 12 -47 -5z"/>
<path d="M1408 3867 c-8 -9 -19 -13 -23 -9 -4 4 -5 -6 -1 -21 6 -25 86 -117
102 -117 11 0 52 -48 46 -54 -3 -3 -1 -6 5 -6 5 0 31 -20 56 -44 26 -24 47
-42 47 -40 0 3 12 -7 28 -21 15 -14 34 -32 43 -40 9 -8 21 -15 27 -15 7 0 12
-5 12 -11 0 -5 5 -7 10 -4 6 3 10 -1 10 -9 0 -9 6 -16 13 -16 6 0 24 -10 39
-23 14 -12 36 -30 47 -39 12 -10 25 -18 30 -18 5 0 11 -3 13 -7 4 -10 61 -53
147 -112 35 -24 77 -58 92 -76 16 -17 47 -45 71 -61 24 -16 65 -46 93 -66 27
-21 53 -38 58 -38 4 0 36 -29 72 -65 36 -36 69 -65 73 -66 4 0 15 -2 25 -4 20
-4 19 -6 21 68 1 31 -2 57 -6 57 -4 0 -8 6 -9 13 0 6 -26 24 -58 39 -32 15
-80 49 -108 75 -28 27 -76 71 -109 98 -32 28 -66 58 -76 68 -10 9 -21 17 -24
17 -4 0 -28 23 -54 50 -26 28 -53 50 -59 50 -7 0 -9 5 -6 10 3 6 -3 10 -14 10
-12 0 -21 4 -21 9 0 5 -20 21 -45 35 -25 15 -45 30 -45 34 0 4 -22 16 -50 27
-27 11 -50 24 -50 29 0 5 -3 7 -6 3 -6 -6 -76 41 -82 56 -2 4 -10 7 -18 7 -8
0 -14 5 -14 10 0 6 -6 10 -13 10 -7 0 -24 13 -37 30 -14 16 -28 29 -32 30 -11
0 -62 50 -52 50 5 0 -6 8 -23 16 -18 9 -30 20 -27 25 3 5 -1 9 -8 9 -8 0 -20
9 -28 20 -8 11 -24 20 -36 20 -12 0 -24 5 -26 11 -3 8 -9 6 -20 -4z"/>
<path d="M5692 3583 c-10 -18 -3 -65 8 -58 5 3 7 -3 6 -12 -2 -10 8 -35 21
-55 12 -21 23 -42 23 -47 0 -6 8 -16 18 -23 9 -7 18 -20 20 -28 2 -8 10 -18
17 -23 8 -4 21 -14 29 -22 8 -8 18 -15 23 -15 5 0 15 -9 23 -20 8 -11 20 -20
26 -20 7 0 21 -11 32 -25 11 -13 22 -21 26 -18 3 3 6 -2 6 -12 0 -10 3 -15 6
-12 4 4 15 -3 25 -15 11 -11 19 -18 19 -14 0 6 6 2 43 -29 7 -6 41 -31 77 -55
36 -25 68 -49 72 -55 4 -5 8 -6 8 -2 0 4 12 -4 28 -18 15 -14 35 -28 45 -31 9
-3 17 -9 17 -14 0 -5 9 -12 20 -15 11 -4 18 -11 15 -16 -4 -5 0 -9 7 -9 7 0
27 -13 44 -28 70 -60 84 -72 90 -72 4 0 15 -10 25 -22 11 -11 19 -18 19 -13 0
4 12 -4 26 -19 15 -14 31 -26 36 -26 5 0 6 -4 3 -10 -3 -5 -2 -10 2 -10 5 0
18 -7 29 -16 10 -8 13 -12 5 -8 -9 5 -12 3 -7 -4 4 -7 12 -12 17 -12 6 0 20
-10 31 -22 11 -13 16 -16 12 -8 -8 15 83 -57 121 -96 11 -11 38 -33 60 -50 22
-16 43 -33 47 -39 4 -5 8 -7 8 -3 0 4 15 -7 34 -25 51 -47 63 -56 70 -50 3 4
6 2 6 -4 0 -6 14 -16 31 -23 22 -10 27 -15 17 -21 -10 -7 -9 -9 5 -9 10 0 20
-7 23 -15 4 -8 10 -12 15 -9 5 3 9 -2 9 -11 0 -9 5 -15 12 -13 13 5 58 -38 58
-56 0 -6 5 -4 10 4 6 9 10 10 10 3 0 -13 57 -73 69 -73 4 0 17 -9 29 -20 12
-12 22 -18 22 -15 0 7 40 -28 105 -92 29 -29 56 -49 60 -45 5 4 5 -1 2 -10 -4
-11 -2 -18 6 -18 7 0 19 -9 27 -20 8 -11 20 -20 27 -20 7 0 13 -5 13 -11 0 -5
4 -8 9 -4 6 3 14 -3 20 -12 6 -10 11 -15 11 -11 0 3 18 -11 40 -33 21 -21 44
-39 50 -39 6 0 8 -4 5 -10 -3 -5 0 -7 8 -4 8 3 18 1 22 -5 3 -6 17 -11 31 -11
14 0 22 4 19 10 -3 6 -2 10 4 10 6 0 -3 23 -19 50 -17 28 -30 55 -30 61 0 6
-4 7 -10 4 -5 -3 -10 0 -10 8 0 8 -7 18 -16 21 -9 4 -14 9 -11 12 7 7 -29 44
-43 44 -5 0 -10 4 -10 9 0 15 -69 85 -77 78 -3 -4 -17 5 -30 19 -12 14 -23 23
-23 20 0 -7 -47 32 -73 61 -11 12 -24 20 -29 17 -4 -3 -8 2 -8 10 0 9 -7 16
-15 16 -9 0 -57 41 -107 90 -50 50 -96 90 -102 90 -7 0 -30 16 -51 36 -22 20
-58 46 -80 60 -22 13 -59 40 -81 61 -23 21 -52 45 -64 53 -12 8 -28 21 -36 28
-7 6 -15 12 -19 12 -3 0 -24 19 -45 42 -22 23 -40 38 -40 35 0 -7 -10 1 -70
54 -19 17 -45 38 -57 46 -13 9 -23 20 -23 25 0 14 -27 38 -34 30 -4 -3 -10 -2
-14 4 -4 6 -38 37 -77 69 -38 33 -81 70 -95 82 -14 13 -50 38 -80 55 -30 17
-68 41 -83 54 -16 13 -33 24 -38 24 -9 0 -57 41 -116 98 -12 13 -23 19 -23 15
0 -4 -5 0 -11 10 -5 9 -17 17 -24 17 -8 0 -15 5 -15 10 0 6 -6 10 -12 10 -7 0
-21 13 -32 28 -10 16 -30 34 -45 40 -14 6 -41 25 -59 42 -18 16 -37 30 -43 30
-5 0 -9 6 -9 13 0 6 -17 28 -38 47 -20 20 -37 39 -37 44 0 16 -35 15 -43 -1z"/>
<path d="M3809 3494 c-24 -30 -16 -56 36 -109 54 -54 88 -95 80 -95 -8 0 29
-34 58 -53 15 -9 27 -14 27 -10 0 5 5 0 11 -9 5 -10 15 -18 22 -18 7 0 34 -21
61 -45 27 -25 62 -53 78 -63 15 -9 28 -20 28 -24 0 -4 5 -8 10 -8 13 0 115
-102 112 -112 -1 -5 5 -8 13 -8 8 0 29 -12 46 -27 17 -16 35 -27 40 -26 5 2 9
-1 9 -6 0 -4 20 -21 45 -37 25 -15 45 -32 45 -36 0 -4 5 -8 10 -8 6 0 20 -8
31 -18 10 -11 32 -25 47 -33 15 -8 34 -22 43 -31 9 -10 19 -14 23 -10 4 4 6 2
4 -5 -2 -6 40 -53 93 -105 100 -97 115 -110 189 -167 25 -19 53 -43 62 -53 9
-11 20 -19 25 -19 4 0 20 -11 35 -24 60 -54 105 23 49 83 -36 38 -91 118 -91
131 0 6 -4 11 -10 11 -5 0 -10 3 -9 8 2 12 -13 52 -20 52 -3 0 -19 12 -36 26
-16 14 -42 33 -57 42 -16 9 -28 20 -28 24 0 4 -5 8 -11 8 -11 0 -82 57 -148
118 -13 12 -28 22 -32 22 -11 0 -46 30 -125 105 -80 76 -88 83 -119 97 -14 6
-25 15 -25 20 0 6 -6 8 -12 6 -7 -3 -26 8 -41 24 -16 15 -35 28 -43 28 -8 0
-14 4 -14 10 0 5 -14 17 -32 26 -36 19 -51 30 -80 62 -12 12 -27 22 -33 22 -6
0 -18 8 -26 18 -23 25 -105 92 -158 128 -25 17 -60 47 -76 65 -35 40 -83 50
-106 23z"/>
<path d="M1287 3448 c-9 -5 -17 -18 -17 -29 0 -13 -5 -18 -12 -14 -7 4 -4 -1
6 -9 11 -9 15 -16 9 -16 -33 0 21 -73 77 -105 19 -10 45 -28 56 -40 30 -28 63
-55 69 -55 5 0 13 -7 73 -57 15 -13 32 -23 38 -23 6 0 19 -9 29 -20 10 -11 24
-20 32 -20 8 0 11 -4 8 -10 -3 -5 0 -10 7 -10 14 0 64 -37 111 -82 16 -16 30
-28 32 -28 3 0 17 -12 33 -27 15 -16 41 -37 57 -48 15 -11 36 -28 47 -37 10
-10 22 -18 27 -18 4 0 19 -13 33 -30 13 -16 55 -53 94 -81 38 -28 71 -55 74
-58 3 -4 32 -28 65 -54 33 -26 75 -61 93 -78 18 -16 37 -27 42 -24 6 3 10 1
10 -6 0 -7 9 -3 21 9 11 13 18 28 16 35 -2 7 0 20 5 30 5 10 5 17 -1 17 -5 0
-8 9 -6 20 2 11 0 20 -5 20 -5 0 -8 8 -7 18 2 30 -33 69 -101 114 -37 23 -70
47 -74 53 -4 5 -8 6 -8 1 0 -5 -10 -1 -22 10 -13 11 -47 35 -75 54 -29 19 -53
38 -53 43 0 4 -6 7 -13 7 -7 0 -30 15 -52 34 -22 19 -43 32 -47 30 -4 -3 -8 3
-8 12 0 10 -3 15 -6 12 -3 -4 -25 14 -48 38 -24 24 -48 44 -53 44 -5 0 -36 25
-68 55 -32 30 -62 55 -66 55 -5 0 -9 5 -9 10 0 6 -7 10 -15 10 -8 0 -15 5 -15
10 0 6 -6 10 -12 10 -7 1 -30 18 -52 39 -21 21 -50 45 -65 52 -14 8 -33 22
-42 31 -9 10 -21 18 -27 18 -6 0 -24 12 -41 26 -17 14 -31 23 -31 19 0 -3 -10
5 -22 19 -26 28 -65 39 -91 24z"/>
<path d="M3749 3073 c-5 -60 -3 -110 4 -106 4 2 7 -3 7 -11 0 -9 7 -16 15 -16
8 0 15 -4 15 -9 0 -5 9 -13 21 -16 28 -9 86 -72 107 -115 9 -19 21 -38 26 -42
6 -4 7 -8 3 -8 -7 0 0 -10 31 -45 6 -7 12 -17 12 -21 0 -8 41 -46 189 -173 13
-11 27 -18 31 -16 5 3 10 2 12 -3 4 -10 180 -140 190 -141 5 -1 18 -10 30 -20
13 -11 34 -29 48 -41 14 -12 37 -28 52 -36 15 -8 34 -24 42 -36 9 -12 16 -19
16 -15 0 4 12 -3 26 -17 15 -13 38 -30 53 -38 14 -7 31 -17 38 -23 7 -5 19
-15 27 -22 7 -6 16 -9 20 -6 3 3 8 -2 12 -11 3 -9 12 -16 20 -16 8 0 14 -7 14
-15 0 -8 4 -15 9 -15 9 0 44 -29 104 -85 36 -34 106 -74 138 -80 25 -5 40 9
59 54 11 26 11 36 2 39 -7 2 -12 11 -12 20 0 10 -19 29 -43 44 -53 35 -137
113 -137 128 0 6 -4 8 -10 5 -5 -3 -10 1 -10 9 0 8 -6 19 -14 23 -14 8 -105
85 -155 132 -15 12 -46 39 -70 60 -24 20 -50 42 -57 49 -7 6 -16 12 -21 12 -8
0 -40 25 -100 79 -17 16 -34 27 -37 23 -3 -3 -6 0 -6 6 0 7 -7 12 -15 12 -8 0
-15 5 -15 12 0 6 -3 9 -6 5 -3 -3 -20 8 -36 24 -17 16 -40 29 -50 29 -11 0
-17 3 -15 8 4 7 -68 81 -81 82 -18 2 -70 46 -65 55 4 5 3 7 -2 3 -4 -4 -21 4
-37 17 -16 14 -34 25 -39 25 -6 0 -7 5 -4 10 3 6 -3 10 -14 10 -12 0 -21 7
-21 15 0 8 -4 15 -9 15 -5 0 -41 30 -79 68 -83 79 -102 95 -102 87 0 -3 -10 5
-22 19 -29 32 -87 45 -89 19z"/>
<path d="M1149 3023 c-9 -10 -15 -25 -15 -34 1 -21 57 -89 73 -89 8 0 12 -4 9
-9 -4 -5 9 -21 26 -35 18 -15 38 -30 44 -36 7 -5 15 -6 18 -3 3 4 6 1 6 -5 0
-7 7 -12 15 -12 8 0 15 -4 15 -10 0 -5 6 -10 13 -10 7 0 19 -9 27 -20 8 -11
18 -20 22 -20 9 0 38 -23 74 -58 13 -13 24 -20 24 -17 0 4 7 0 15 -7 34 -30
45 -38 56 -38 7 0 43 -31 81 -70 38 -38 73 -70 78 -70 5 0 14 -9 20 -20 6 -11
16 -20 23 -20 7 0 19 -9 27 -20 8 -11 17 -20 21 -20 8 0 129 -121 129 -130 0
-4 12 -13 27 -21 15 -8 40 -27 56 -44 16 -16 32 -29 36 -28 3 0 12 -5 19 -13
7 -8 10 -14 6 -14 -4 0 12 -13 34 -30 55 -40 96 -47 116 -19 15 23 13 82 -4
87 -5 2 -10 9 -10 16 0 6 -8 22 -17 35 -29 38 -110 121 -119 121 -4 0 -33 23
-65 50 -32 28 -60 50 -64 50 -4 0 -19 13 -35 30 -15 16 -30 26 -34 23 -3 -3
-6 1 -6 11 0 9 -5 14 -10 11 -6 -3 -13 1 -16 9 -3 9 -10 16 -15 16 -5 0 -33
16 -64 35 -30 20 -57 35 -60 35 -3 0 -12 5 -19 12 -20 19 -53 41 -60 40 -10
-2 -53 42 -49 51 2 4 -3 7 -11 7 -9 0 -16 5 -16 10 0 6 -5 10 -12 10 -6 0 -18
7 -27 15 -55 53 -122 109 -156 132 -22 15 -63 50 -90 78 -57 57 -108 71 -136
38z"/>
<path d="M5928 2829 c-20 -11 -24 -44 -7 -54 6 -4 8 -13 5 -21 -3 -8 1 -14 10
-14 8 0 12 -5 9 -10 -3 -6 1 -13 9 -16 9 -3 14 -9 11 -14 -2 -4 11 -16 30 -26
19 -10 35 -22 35 -26 0 -5 4 -7 9 -5 5 1 17 -6 28 -16 42 -40 90 -81 123 -106
19 -14 49 -39 66 -56 59 -56 94 -85 104 -85 5 0 10 -4 10 -10 0 -5 6 -10 13
-10 7 0 40 -27 74 -60 33 -33 64 -60 68 -60 3 0 12 -6 19 -12 7 -7 25 -22 41
-33 15 -11 36 -29 47 -40 10 -11 23 -20 27 -20 13 0 171 -135 171 -146 0 -5 5
-9 11 -9 6 0 26 -12 44 -27 18 -16 48 -40 67 -55 18 -15 44 -37 57 -48 13 -11
27 -20 30 -20 3 0 27 -20 53 -44 26 -24 49 -42 52 -38 3 3 6 0 6 -6 0 -7 6
-12 14 -12 7 0 20 -8 27 -17 8 -9 33 -29 57 -44 23 -15 60 -41 82 -59 21 -17
42 -32 47 -33 4 0 17 -9 27 -19 11 -10 24 -18 28 -18 5 0 6 -4 3 -10 -3 -5 -1
-10 6 -10 6 0 23 -12 36 -26 13 -15 48 -42 76 -62 29 -20 63 -47 77 -61 29
-31 96 -81 106 -81 4 0 22 -16 41 -35 19 -19 38 -35 42 -35 4 0 16 -9 26 -20
10 -11 21 -20 25 -20 4 0 33 -26 66 -57 118 -115 161 -139 151 -86 -11 59 -17
77 -29 85 -7 4 -9 8 -5 8 5 0 2 6 -5 13 -7 8 -29 34 -48 60 -19 25 -41 47 -48
47 -7 0 -16 8 -19 17 -4 9 -26 37 -50 62 -24 24 -43 48 -43 54 0 6 -3 8 -6 4
-4 -3 -24 11 -45 33 -21 21 -47 41 -59 45 -11 3 -20 12 -20 18 0 7 -15 19 -32
26 -18 8 -40 23 -49 33 -9 10 -21 18 -28 18 -6 0 -11 5 -11 11 0 5 -4 7 -10 4
-5 -3 -10 -1 -10 5 0 6 -6 17 -12 24 -18 17 -78 58 -78 53 0 -2 -26 20 -57 49
-32 30 -70 60 -85 66 -16 7 -28 16 -28 20 0 5 -7 8 -16 8 -8 0 -12 5 -9 10 3
6 -1 10 -10 10 -8 0 -18 7 -21 15 -4 8 -10 12 -15 9 -5 -3 -9 -2 -9 3 0 4 -21
19 -47 33 -27 13 -50 27 -53 30 -3 3 -34 28 -70 55 -90 67 -120 96 -113 109 3
6 3 8 -2 4 -7 -7 -81 44 -97 67 -4 5 -8 6 -8 2 0 -4 -16 9 -35 30 -19 21 -35
35 -35 32 0 -4 -17 10 -39 30 -69 65 -112 101 -119 101 -4 0 -14 9 -22 20 -8
11 -20 20 -27 20 -7 0 -13 5 -13 12 0 6 -3 9 -6 5 -7 -7 -17 1 -102 82 -37 35
-92 80 -122 100 -30 20 -57 39 -58 44 -2 4 -8 5 -13 1 -5 -3 -9 0 -9 5 0 6 -7
11 -15 11 -8 0 -15 5 -15 10 0 6 -4 10 -10 10 -5 0 -44 35 -87 78 -43 44 -87
83 -98 87 -32 13 -69 15 -87 4z"/>
<path d="M954 2686 c-13 -10 -12 -16 15 -51 17 -22 34 -44 38 -50 5 -5 14 -21
21 -35 26 -53 52 -93 71 -112 12 -10 21 -16 21 -13 0 3 8 -3 18 -12 30 -28 62
-53 62 -48 0 2 10 -6 23 -18 42 -40 77 -67 87 -67 6 0 10 -4 10 -10 0 -5 5
-10 11 -10 6 0 24 -13 39 -30 15 -16 31 -30 35 -30 3 0 12 -6 19 -12 7 -7 25
-22 41 -33 16 -11 39 -30 53 -43 13 -13 26 -21 29 -19 4 5 53 -37 139 -121 30
-29 54 -49 54 -45 0 5 4 3 8 -3 13 -20 91 -64 117 -66 14 -1 25 -6 25 -10 0
-4 9 -8 20 -8 11 0 20 -5 20 -12 0 -6 3 -9 6 -5 4 3 19 0 34 -8 36 -18 80 -26
81 -14 1 5 3 14 4 19 1 6 3 17 4 26 1 9 6 12 14 8 6 -4 -1 7 -17 24 -16 17
-33 29 -38 26 -4 -3 -8 -1 -8 4 0 5 -7 9 -15 10 -8 1 -22 3 -30 4 -8 1 -15 5
-15 10 0 4 -3 7 -7 6 -14 -4 -57 25 -95 63 -21 21 -38 35 -38 31 0 -4 -9 6
-19 21 -10 16 -22 29 -27 29 -5 0 -8 4 -7 9 2 5 -4 9 -12 9 -8 0 -15 5 -15 10
0 6 -6 10 -13 10 -7 0 -34 20 -60 43 -26 24 -49 41 -52 38 -3 -3 -8 5 -12 17
-3 12 -9 22 -13 22 -4 0 -16 8 -28 18 -11 9 -35 28 -51 40 -17 13 -50 41 -73
63 -23 21 -44 37 -46 35 -3 -4 -37 23 -93 75 -21 20 -41 34 -44 31 -3 -3 -5 0
-5 7 0 13 -59 71 -73 71 -5 0 -28 15 -51 32 -22 18 -47 37 -54 43 -7 5 -21 17
-30 25 -21 19 -57 21 -78 6z"/>
<path d="M3649 2596 c-21 -16 -17 -45 14 -93 15 -24 27 -46 27 -49 0 -9 41
-44 51 -44 4 0 14 -6 21 -12 7 -7 35 -24 61 -38 26 -13 47 -31 47 -38 0 -7 5
-10 10 -7 6 3 10 1 10 -5 0 -6 9 -20 20 -32 11 -12 20 -28 20 -37 0 -8 3 -11
6 -8 4 3 16 -5 27 -19 11 -15 37 -38 57 -53 44 -32 147 -119 169 -143 8 -10
19 -18 23 -18 8 0 37 -22 69 -52 9 -9 20 -14 23 -10 3 3 6 -2 6 -11 0 -9 7
-17 15 -17 8 0 15 -4 15 -10 0 -5 6 -10 13 -10 7 0 34 -19 59 -43 25 -24 52
-47 61 -50 10 -4 17 -11 17 -17 0 -6 5 -8 10 -5 6 4 29 -12 52 -34 22 -23 44
-41 48 -41 4 0 10 -7 14 -15 3 -8 11 -15 18 -15 7 0 26 -11 41 -25 15 -14 27
-23 27 -19 0 4 8 -3 19 -14 10 -12 21 -19 25 -15 3 3 6 -1 6 -11 0 -9 4 -15 9
-12 4 3 22 -7 39 -22 16 -15 47 -40 68 -57 21 -16 43 -36 51 -43 7 -7 13 -10
13 -6 0 4 9 -2 20 -14 24 -25 25 -26 51 -11 11 5 17 14 14 20 -4 5 -1 9 5 9 7
0 8 6 1 17 -5 10 -5 26 0 40 5 14 5 23 -1 23 -6 0 -10 6 -10 14 0 7 -7 19 -15
26 -8 7 -12 17 -8 24 3 6 3 8 -2 4 -8 -7 -74 60 -75 75 0 5 -4 5 -10 2 -5 -3
-10 -1 -10 5 0 15 -91 99 -107 100 -7 0 -13 5 -13 10 0 6 -7 10 -15 10 -9 0
-18 6 -21 13 -3 8 -10 14 -17 14 -7 0 -36 16 -65 36 -28 21 -54 37 -57 37 -3
0 -24 17 -46 38 -23 20 -44 37 -48 37 -7 0 -87 63 -128 103 -13 12 -28 22 -34
22 -5 0 -40 30 -78 68 -79 77 -121 114 -121 107 0 -9 -27 15 -106 93 -40 39
-78 72 -84 72 -5 0 -10 5 -10 11 0 5 -4 8 -9 5 -4 -3 -19 6 -31 19 -13 14 -29
25 -37 25 -7 0 -13 5 -13 10 0 6 -6 10 -12 10 -7 0 -26 13 -43 28 -28 26 -57
43 -80 48 -5 1 -12 3 -15 4 -20 7 -38 6 -51 -4z"/>
<path d="M593 2393 c-21 -7 -15 -30 17 -65 17 -18 30 -28 30 -23 0 6 5 3 10
-5 5 -8 13 -15 18 -15 14 0 82 -61 82 -74 0 -6 4 -11 8 -11 8 0 23 -11 69 -50
7 -5 15 -10 18 -10 4 0 13 -6 20 -12 22 -20 37 -31 85 -63 25 -16 47 -32 50
-35 3 -3 17 -11 33 -19 15 -8 27 -18 27 -23 0 -4 5 -8 10 -8 6 0 32 -21 58
-48 48 -48 121 -113 187 -167 20 -16 46 -39 58 -51 12 -11 42 -33 66 -48 24
-16 60 -42 78 -60 19 -17 42 -35 51 -40 9 -5 38 -30 64 -55 58 -55 92 -60 134
-22 16 14 30 34 32 43 3 18 -59 88 -77 88 -6 0 -11 3 -11 8 0 4 -14 16 -30 27
-16 11 -30 26 -30 33 0 7 -4 10 -10 7 -5 -3 -10 1 -10 9 0 9 -5 16 -11 16 -18
0 -59 37 -51 45 4 5 1 5 -6 1 -8 -5 -22 1 -35 16 -12 13 -30 27 -40 31 -9 3
-17 11 -17 17 0 5 -6 10 -13 10 -7 0 -26 14 -42 30 -16 17 -34 30 -41 30 -6 0
-14 7 -18 15 -3 8 -10 14 -14 13 -5 -2 -25 11 -44 29 -20 17 -50 38 -67 47
-17 9 -31 21 -31 27 0 6 -4 8 -9 5 -5 -3 -32 17 -60 44 -28 27 -51 47 -51 44
0 -7 -22 12 -93 79 -56 53 -100 82 -118 79 -4 -1 -15 8 -24 18 -10 11 -24 20
-32 20 -8 0 -34 14 -58 30 -24 17 -51 30 -59 30 -9 0 -16 3 -16 8 0 8 -67 12
-87 5z"/>
<path d="M6135 2181 c-18 -7 -31 -61 -15 -61 4 0 12 -18 19 -41 10 -32 41 -69
141 -167 145 -142 160 -156 160 -145 0 4 16 -9 35 -29 18 -21 39 -38 44 -38 6
0 11 -7 11 -15 0 -8 3 -14 8 -13 13 5 52 -28 44 -37 -4 -5 -1 -5 6 -1 8 5 22
-2 38 -19 13 -14 24 -24 24 -21 0 4 9 -2 19 -11 37 -33 50 -43 61 -43 5 0 10
-4 10 -10 0 -5 5 -10 11 -10 7 0 32 -16 55 -36 24 -19 44 -32 44 -27 0 4 4 3
8 -3 4 -6 33 -27 65 -48 31 -21 57 -42 57 -46 0 -13 73 -80 88 -80 6 0 12 -4
12 -10 0 -5 7 -10 15 -10 8 0 15 -4 15 -10 0 -5 7 -10 16 -10 9 0 12 -5 8 -12
-5 -8 -2 -9 9 -5 10 3 17 2 17 -3 0 -6 7 -10 15 -10 8 0 15 -4 15 -8 0 -4 24
-26 53 -47 28 -22 54 -43 55 -47 2 -5 8 -8 13 -8 5 0 17 -8 27 -17 38 -36 76
-66 111 -86 20 -12 41 -25 46 -29 34 -27 85 -60 117 -76 21 -10 35 -22 30 -27
-4 -5 -1 -5 6 -1 7 4 26 1 42 -8 17 -8 28 -10 25 -5 -4 5 0 9 8 9 19 0 46 32
44 51 -4 26 -23 40 -122 93 -11 6 -22 14 -25 17 -3 3 -22 14 -43 24 -23 11
-40 27 -43 42 -4 13 -8 22 -11 20 -7 -7 -121 107 -116 116 3 4 1 6 -4 5 -9 -3
-64 31 -74 46 -4 5 -12 5 -19 1 -8 -5 -11 -4 -7 2 3 5 -12 17 -33 27 -22 10
-40 22 -40 27 0 5 -6 9 -14 9 -8 0 -18 5 -22 12 -4 7 -3 8 4 4 7 -4 12 -5 12
-3 0 2 -21 19 -47 37 -27 18 -74 55 -105 82 -32 27 -58 46 -58 43 0 -4 -6 0
-14 7 -7 7 -24 20 -36 28 -13 8 -34 27 -48 43 -14 15 -34 27 -44 27 -10 0 -18
4 -18 9 0 5 -11 12 -25 15 -14 4 -25 11 -25 17 0 6 -4 7 -10 4 -5 -3 -10 -2
-10 4 0 5 -8 12 -19 16 -10 3 -28 13 -39 23 -12 9 -40 33 -63 52 -23 19 -48
41 -56 48 -7 7 -13 11 -13 7 0 -6 -9 1 -61 48 -17 15 -34 27 -38 27 -4 0 -14
11 -21 25 -7 14 -20 25 -27 25 -8 0 -12 4 -9 8 3 5 -6 15 -19 22 -13 7 -22 17
-19 22 3 4 -2 8 -10 8 -19 0 -48 24 -142 118 -40 39 -74 72 -76 71 -2 0 -12
-4 -23 -8z"/>
<path d="M315 2154 c-16 -14 -25 -23 -19 -20 7 3 11 -7 12 -27 0 -17 6 -33 11
-35 6 -2 11 -12 11 -23 0 -10 5 -19 10 -19 6 0 9 -4 8 -9 -2 -5 18 -29 45 -54
26 -24 47 -42 47 -40 0 7 77 -51 120 -91 21 -19 41 -32 44 -29 3 4 6 2 6 -4 0
-6 20 -23 45 -37 25 -15 45 -30 45 -35 0 -4 20 -18 45 -31 24 -12 42 -27 39
-31 -3 -5 1 -9 9 -9 8 0 22 -9 32 -20 10 -11 24 -20 32 -20 7 0 13 -5 13 -12
0 -6 3 -8 7 -5 3 4 11 1 17 -7 20 -25 225 -196 238 -198 7 -2 25 -15 39 -30
15 -16 32 -28 38 -28 6 0 11 -4 11 -8 0 -5 18 -18 39 -30 22 -12 50 -33 63
-47 12 -14 29 -25 36 -25 6 0 12 -4 12 -9 0 -18 55 -3 69 19 16 24 22 60 10
60 -4 0 -10 9 -14 19 -8 25 -65 81 -82 81 -8 0 -11 5 -7 12 4 7 3 8 -5 4 -7
-5 -30 10 -58 38 -25 25 -48 46 -50 46 -3 0 -22 14 -43 30 -21 17 -43 30 -49
30 -6 0 -11 5 -11 10 0 6 -6 10 -13 10 -8 0 -24 11 -37 25 -13 14 -25 23 -28
21 -2 -3 -14 5 -27 16 -13 11 -26 20 -29 19 -3 0 -21 15 -40 33 -18 19 -53 46
-77 61 -23 15 -54 39 -68 52 -14 14 -43 36 -64 49 -20 13 -46 32 -57 42 -12 9
-24 17 -28 17 -7 -1 -38 24 -71 55 -23 21 -71 52 -71 45 0 -4 -7 0 -15 9 -8 8
-15 17 -15 21 0 21 -97 115 -119 115 -11 0 -21 4 -23 10 -1 5 -16 -2 -33 -16z"/>
<path d="M3559 2146 c-26 -20 -16 -59 23 -92 20 -18 44 -38 51 -45 8 -8 32
-28 53 -45 54 -44 94 -82 94 -89 0 -6 13 -23 43 -56 9 -10 14 -19 11 -19 -4 0
6 -10 22 -22 16 -13 34 -27 40 -33 7 -5 24 -19 40 -30 15 -11 36 -28 46 -37
10 -10 25 -18 33 -18 8 0 15 -4 15 -10 0 -5 4 -10 10 -10 10 0 86 -67 172
-152 26 -26 48 -45 48 -43 0 6 50 -37 103 -87 21 -21 41 -38 44 -38 5 0 40
-30 89 -78 13 -13 24 -20 24 -16 0 5 6 1 13 -8 6 -9 32 -33 57 -53 25 -20 67
-55 93 -78 27 -22 55 -42 64 -43 9 -2 19 -6 22 -11 8 -11 100 -53 129 -58 25
-4 31 4 34 55 2 19 8 38 13 42 6 5 3 8 -7 8 -11 0 -15 5 -12 14 3 8 -8 22 -29
35 -31 19 -64 56 -69 78 -5 21 -64 73 -98 87 -21 8 -41 20 -44 25 -4 6 -13 8
-20 5 -7 -3 -16 2 -19 10 -4 9 -13 16 -22 16 -8 0 -14 5 -12 12 1 7 -2 12 -8
13 -25 1 -135 96 -135 116 0 5 -5 9 -11 9 -6 0 -22 14 -36 30 -13 17 -31 30
-39 30 -8 0 -14 5 -14 11 0 5 -4 8 -8 5 -5 -3 -16 6 -26 20 -11 13 -23 24 -29
24 -5 0 -18 10 -28 22 -11 11 -19 18 -19 14 0 -11 -70 43 -161 124 -43 38 -72
60 -82 60 -4 0 -5 5 -2 10 3 6 2 10 -3 10 -4 0 -17 8 -28 18 -10 9 -31 23 -46
31 -16 8 -28 18 -28 23 0 4 -6 8 -14 8 -8 0 -21 9 -29 20 -8 11 -17 17 -20 14
-4 -4 -9 1 -13 10 -3 9 -12 16 -18 16 -7 0 -23 11 -36 25 -13 14 -25 23 -28
21 -2 -3 -13 4 -25 15 -11 10 -27 19 -34 19 -8 0 -11 5 -8 10 3 6 1 10 -5 10
-7 0 -25 12 -41 28 -32 29 -58 35 -80 18z"/>
<path d="M295 1642 c-9 -23 -6 -62 5 -62 6 0 10 -6 10 -13 0 -15 126 -147 141
-147 6 0 7 -4 4 -10 -3 -5 -1 -10 5 -10 13 0 29 -15 51 -50 9 -14 38 -37 64
-50 26 -13 49 -30 52 -37 3 -7 9 -11 13 -8 5 3 16 -5 24 -17 9 -12 16 -18 16
-13 0 6 3 6 8 0 8 -12 119 -85 127 -85 3 1 12 -5 20 -12 60 -54 113 -88 137
-88 35 0 94 26 101 45 4 8 2 15 -4 15 -6 0 -8 4 -5 9 3 5 -5 16 -19 25 -14 9
-25 13 -25 9 0 -5 -4 -3 -8 2 -4 6 -23 22 -42 35 -45 31 -60 46 -60 59 0 6 -3
11 -7 10 -16 -2 -53 14 -53 23 0 5 -4 7 -9 4 -5 -3 -14 0 -19 7 -6 7 -27 19
-47 27 -19 7 -35 17 -35 22 0 4 -7 8 -15 8 -8 0 -15 5 -15 10 0 6 -5 10 -10
10 -6 0 -21 10 -34 23 -19 18 -54 49 -123 107 -7 6 -13 8 -13 4 0 -4 -8 1 -19
12 -10 10 -37 36 -60 57 -22 21 -41 42 -41 47 0 6 -7 10 -15 10 -8 0 -15 4
-15 9 0 22 -77 34 -85 13z"/>
<path d="M3502 1630 c-12 -8 -8 -28 11 -50 10 -12 15 -25 12 -30 -4 -6 1 -10
10 -10 9 0 14 -4 10 -10 -7 -12 80 -99 124 -124 19 -11 45 -29 59 -40 28 -25
80 -71 103 -91 9 -8 20 -15 25 -15 5 0 28 -18 52 -40 24 -22 47 -40 52 -40 6
0 10 -5 10 -12 0 -6 3 -9 6 -5 4 3 12 1 20 -6 33 -29 44 -37 54 -37 5 0 10 -4
10 -10 0 -5 6 -10 13 -10 6 0 34 -20 62 -45 27 -24 51 -42 54 -40 2 3 14 -6
26 -20 13 -13 26 -21 29 -18 3 4 6 -1 6 -11 0 -9 5 -14 10 -11 6 3 10 0 10 -7
0 -11 70 -59 85 -58 3 0 18 -6 33 -13 15 -8 48 -13 75 -12 26 0 47 -2 47 -6 0
-4 8 -6 18 -4 9 2 23 4 30 4 22 2 13 40 -15 65 -16 13 -44 38 -63 55 -19 18
-51 39 -70 48 -19 9 -38 22 -42 27 -4 6 -8 7 -8 2 0 -5 -25 15 -55 45 -63 63
-85 82 -85 74 0 -6 -41 29 -86 73 -18 17 -39 32 -45 32 -7 0 -9 3 -6 6 3 4
-10 19 -31 34 -20 15 -47 37 -58 48 -12 12 -24 18 -28 15 -3 -3 -8 2 -12 11
-3 9 -9 14 -14 11 -4 -2 -16 4 -27 15 -12 10 -23 17 -25 15 -2 -2 -17 7 -32
20 -16 14 -32 25 -36 25 -4 0 -26 18 -51 40 -24 22 -52 42 -61 46 -10 3 -18 9
-18 13 0 4 -19 16 -42 26 -24 9 -52 21 -63 26 -20 10 -70 9 -83 -1z"/>
<path d="M6356 1446 c-3 -11 -1 -22 4 -24 6 -2 10 -10 10 -18 0 -8 11 -24 25
-36 13 -11 22 -25 19 -30 -3 -4 1 -8 8 -8 7 0 24 -16 37 -35 13 -19 28 -35 33
-35 5 0 6 -4 3 -10 -3 -5 -1 -10 4 -10 6 0 11 -6 11 -14 0 -8 9 -18 20 -21 11
-3 20 -13 20 -21 0 -8 4 -14 8 -14 4 0 25 -16 45 -35 20 -19 40 -35 43 -35 4
0 21 -12 40 -27 97 -81 114 -94 120 -93 4 1 10 -2 13 -7 12 -18 82 -55 114
-60 17 -3 33 -8 35 -13 2 -4 12 -6 22 -3 11 3 20 0 20 -6 0 -11 49 -9 69 3 6
4 11 14 11 22 0 19 -87 104 -106 104 -8 0 -14 5 -14 10 0 6 -7 10 -15 10 -8 0
-15 3 -15 8 0 4 -15 13 -32 21 -18 8 -35 17 -38 20 -3 3 -21 18 -42 33 -20 15
-43 34 -51 42 -8 8 -17 12 -21 9 -3 -4 -6 0 -6 7 0 7 -3 11 -6 8 -7 -7 -54 39
-54 53 0 6 -4 8 -8 5 -5 -3 -18 4 -30 14 -12 11 -24 20 -28 20 -8 0 -54 48
-54 57 0 4 -36 38 -72 68 -43 36 -77 54 -105 58 -26 4 -32 1 -37 -17z"/>
<path d="M3386 1275 c-11 -8 -15 -15 -10 -15 5 0 9 -12 8 -27 -1 -31 15 -73
28 -73 4 0 8 -7 8 -15 0 -8 5 -15 11 -15 5 0 8 -3 6 -7 -2 -5 11 -22 30 -40
18 -18 33 -29 33 -25 0 4 4 2 8 -4 4 -6 26 -23 50 -38 24 -15 45 -33 49 -41 3
-8 10 -12 16 -8 6 3 7 1 3 -5 -7 -12 26 -47 66 -67 30 -15 232 -20 223 -5 -3
5 1 11 7 13 8 4 -2 19 -28 44 -55 51 -93 83 -99 83 -4 0 -61 36 -104 68 -14 9
-35 27 -47 39 -12 12 -25 19 -28 16 -3 -4 -6 -1 -6 5 0 7 -7 12 -15 12 -7 0
-18 7 -23 16 -5 8 -16 16 -26 18 -9 1 -25 9 -34 17 -95 79 -94 78 -126 54z"/>
<path d="M300 1133 c-15 -18 -15 -76 1 -81 5 -2 9 -9 9 -15 0 -7 14 -21 30
-32 16 -11 30 -24 30 -28 0 -13 23 -32 55 -45 36 -14 137 -23 129 -10 -3 4 0
8 5 8 13 0 10 20 -4 35 -5 6 -26 22 -45 35 -19 14 -50 40 -68 60 -72 78 -86
90 -106 90 -12 -1 -28 -8 -36 -17z"/>
</g>
</svg>
